<svg xmlns="http://www.w3.org/2000/svg" xmlns:xlink="http://www.w3.org/1999/xlink" width="768" zoomAndPan="magnify" viewBox="0 0 576 719.999996" height="960" preserveAspectRatio="xMidYMid meet" version="1.0"><defs><clipPath id="247d9626e6"><path d="M 2 153.6875 L 574 153.6875 L 574 566.1875 L 2 566.1875 Z M 2 153.6875 " clip-rule="nonzero"/></clipPath></defs><rect x="-57.6" width="691.2" fill="#ffffff" y="-72" height="863.999995" fill-opacity="1"/><rect x="-57.6" width="691.2" fill="#ffffff" y="-72" height="863.999995" fill-opacity="1"/><g clip-path="url(#247d9626e6)"><path fill="#333333" d="M 172.972656 214.738281 C 168.703125 208.761719 166.222656 201.851562 166.222656 194.460938 C 166.210938 171.988281 188.808594 153.765625 216.6875 153.765625 C 244.5625 153.765625 267.160156 171.988281 267.160156 194.460938 C 267.160156 195.125 267.136719 195.792969 267.101562 196.457031 C 267.089844 196.722656 267.054688 196.972656 267.03125 197.226562 C 267 197.617188 266.964844 198.019531 266.917969 198.410156 C 266.882812 198.742188 266.824219 199.074219 266.78125 199.394531 C 266.734375 199.695312 266.6875 200.003906 266.632812 200.300781 C 266.5625 200.679688 266.480469 201.058594 266.402344 201.425781 C 266.34375 201.667969 266.296875 201.910156 266.242188 202.160156 C 266.136719 202.574219 266.035156 202.988281 265.917969 203.402344 C 265.863281 203.585938 265.816406 203.777344 265.757812 203.960938 C 265.621094 204.410156 265.484375 204.859375 265.335938 205.292969 C 265.289062 205.433594 265.242188 205.558594 265.195312 205.695312 C 265.023438 206.179688 264.839844 206.660156 264.65625 207.128906 C 264.621094 207.210938 264.589844 207.28125 264.566406 207.359375 C 264.347656 207.875 264.128906 208.394531 263.886719 208.910156 L 262.613281 208.910156 L 262.074219 210.058594 L 367.65625 210.058594 C 375.175781 210.058594 381.304688 216.171875 381.304688 223.703125 L 381.304688 263.824219 C 381.304688 263.984375 381.292969 264.144531 381.28125 264.304688 L 381.257812 264.742188 L 385.195312 279.441406 C 385.390625 280.15625 385.089844 280.671875 384.90625 280.921875 C 384.585938 281.347656 384.082031 281.601562 383.550781 281.601562 C 383.402344 281.601562 383.253906 281.578125 383.09375 281.542969 L 367.875 277.46875 L 254.375 277.46875 C 246.855469 277.46875 240.730469 271.351562 240.730469 263.824219 L 240.730469 229.027344 L 239.582031 229.496094 L 239.582031 230.738281 C 236.183594 232.136719 232.558594 233.226562 228.769531 233.984375 C 228.632812 234.007812 228.496094 234.03125 228.355469 234.066406 C 227.609375 234.214844 226.855469 234.339844 226.085938 234.457031 C 225.832031 234.488281 225.578125 234.523438 225.328125 234.570312 C 224.660156 234.664062 223.996094 234.742188 223.320312 234.8125 C 223.019531 234.847656 222.734375 234.878906 222.433594 234.902344 C 221.757812 234.960938 221.082031 235.007812 220.402344 235.050781 C 220.128906 235.0625 219.851562 235.085938 219.566406 235.097656 C 218.613281 235.144531 217.660156 235.167969 216.695312 235.167969 C 205.957031 235.167969 196.015625 232.445312 187.84375 227.832031 L 171.824219 232.125 C 170.148438 232.574219 168.621094 231.046875 169.070312 229.371094 Z M 308.785156 379.367188 L 308.785156 557.996094 C 308.785156 562.3125 305.292969 565.800781 300.980469 565.800781 C 296.664062 565.800781 293.175781 562.3125 293.175781 557.996094 L 293.175781 394.058594 L 217.808594 394.058594 C 217.789062 394.058594 217.753906 394.058594 217.730469 394.046875 L 217.648438 395.195312 C 233.773438 397.441406 245.355469 411.433594 244.574219 427.71875 L 243.253906 455.46875 L 241.453125 509.441406 C 241.199219 516.945312 243.609375 524.328125 248.234375 530.316406 L 249.601562 530.214844 C 252.550781 533.851562 256.324219 536.871094 260.71875 538.992188 C 272.378906 544.628906 285.140625 553.578125 285.140625 565.800781 L 195.132812 565.800781 C 195.132812 565.800781 192.148438 553.476562 189.453125 534.746094 L 190.601562 534.65625 C 190.601562 534.632812 190.589844 534.609375 190.589844 534.574219 L 190.4375 533.519531 L 185.640625 533.886719 C 183.761719 514.066406 182.269531 484.949219 185.503906 456.71875 L 185.585938 456.054688 L 185.21875 456.351562 C 185.011719 456.523438 184.757812 456.605469 184.496094 456.605469 C 184.449219 456.605469 184.414062 456.59375 184.367188 456.59375 C 184.21875 456.582031 184.070312 456.535156 183.933594 456.453125 C 183.839844 456.398438 183.761719 456.339844 183.691406 456.261719 C 183.65625 456.226562 183.621094 456.179688 183.585938 456.132812 C 183.566406 456.097656 183.542969 456.066406 183.519531 456.03125 C 183.484375 455.960938 183.449219 455.894531 183.425781 455.824219 C 183.425781 455.8125 183.414062 455.800781 183.414062 455.777344 C 183.394531 455.699219 183.371094 455.605469 183.371094 455.515625 C 183.371094 455.433594 183.359375 455.363281 183.371094 455.285156 L 183.496094 454.367188 L 174.613281 454.367188 C 175.082031 454.503906 175.441406 454.929688 175.441406 455.445312 C 175.441406 455.46875 175.429688 455.492188 175.429688 455.515625 C 175.394531 456.085938 174.957031 456.535156 174.382812 456.582031 C 174.347656 456.582031 174.328125 456.605469 174.292969 456.605469 L 173.179688 456.605469 L 160.484375 500.421875 C 158.398438 507.640625 158.914062 515.375 161.921875 522.316406 L 163.273438 522.558594 C 165.238281 526.804688 168.152344 530.671875 171.894531 533.804688 C 181.808594 542.136719 191.976562 553.945312 188.957031 565.800781 L 101.679688 543.640625 C 101.679688 543.640625 101.679688 543.59375 101.679688 543.515625 C 101.679688 543.503906 101.679688 543.503906 101.679688 543.492188 C 101.703125 542.023438 101.945312 529.777344 103.816406 512.148438 C 103.816406 512.148438 103.816406 512.148438 103.816406 512.136719 L 104.953125 512.332031 C 104.953125 512.308594 104.953125 512.289062 104.964844 512.253906 L 105.078125 511.1875 L 100.339844 510.359375 C 102.207031 498.261719 104.503906 486.488281 107.15625 475.355469 L 107.488281 473.945312 L 91.285156 473.945312 L 91.285156 475.09375 L 92.429688 475.09375 L 92.429688 556.414062 L 113.304688 556.414062 C 115.898438 556.414062 118 558.515625 118 561.109375 C 118 563.703125 115.898438 565.800781 113.304688 565.800781 L 47.695312 565.800781 C 45.101562 565.800781 43.003906 563.703125 43.003906 561.109375 C 43.003906 558.515625 45.101562 556.414062 47.695312 556.414062 L 68.570312 556.414062 L 68.570312 475.09375 L 69.71875 475.09375 L 69.71875 473.945312 L 35.347656 473.945312 C 33.15625 473.945312 31.066406 473.117188 29.449219 471.625 L 27.519531 469.835938 L 27.519531 471.179688 C 27.863281 471.636719 28.242188 472.074219 28.667969 472.476562 L 28.667969 557.996094 C 28.667969 562.3125 25.179688 565.800781 20.863281 565.800781 C 16.550781 565.800781 13.058594 562.3125 13.058594 557.996094 L 13.058594 408.839844 L 14.207031 414.128906 L 14.207031 408.714844 L 2.492188 354.671875 C 1.929688 352.089844 2.558594 349.4375 4.210938 347.382812 C 5.863281 345.328125 8.332031 344.160156 10.960938 344.160156 L 24.328125 344.160156 L 24.675781 343.757812 C 30.035156 337.535156 35.496094 332.695312 35.554688 332.648438 C 36.519531 331.648438 37.414062 330.753906 38.308594 329.882812 C 46.15625 322.25 54.707031 316.203125 63.738281 311.910156 C 63.625 311.542969 63.488281 311.1875 63.371094 310.808594 C 63.144531 310.003906 62.949219 309.203125 62.789062 308.375 C 62.789062 308.351562 62.777344 308.339844 62.777344 308.316406 C 62.613281 307.515625 62.488281 306.710938 62.398438 305.882812 C 62.398438 305.863281 62.386719 305.839844 62.386719 305.804688 C 62.292969 305.023438 62.246094 304.242188 62.226562 303.453125 C 62.226562 303.300781 62.214844 303.152344 62.214844 303.003906 C 62.203125 302.210938 62.203125 301.421875 62.246094 300.628906 C 62.570312 295.085938 63.429688 288.992188 65.128906 282.460938 C 73.011719 252.265625 87.082031 233.054688 104.722656 227.546875 C 104.757812 227.546875 104.789062 227.511719 104.8125 227.511719 C 107.84375 226.226562 111.125 225.550781 114.601562 225.550781 C 115.210938 225.550781 115.808594 225.574219 116.40625 225.617188 C 116.589844 225.628906 116.773438 225.652344 116.957031 225.664062 C 117.378906 225.699219 117.792969 225.757812 118.207031 225.8125 C 118.402344 225.835938 118.597656 225.871094 118.78125 225.894531 C 119.273438 225.972656 119.769531 226.066406 120.25 226.179688 C 120.328125 226.203125 120.421875 226.214844 120.503906 226.226562 C 120.707031 226.25 120.914062 226.296875 121.109375 226.332031 C 121.238281 226.351562 121.351562 226.386719 121.476562 226.410156 C 121.832031 226.492188 122.175781 226.605469 122.535156 226.730469 C 122.625 226.765625 122.726562 226.800781 122.820312 226.835938 C 123.039062 226.925781 123.257812 227.019531 123.472656 227.132812 C 125.148438 227.753906 126.734375 228.535156 128.214844 229.464844 C 128.25 229.484375 128.28125 229.507812 128.328125 229.53125 C 129.773438 230.449219 131.128906 231.519531 132.355469 232.699219 C 132.425781 232.769531 132.496094 232.835938 132.5625 232.90625 C 133.089844 233.421875 133.597656 233.972656 134.078125 234.535156 C 134.160156 234.628906 134.238281 234.707031 134.308594 234.800781 C 134.824219 235.417969 135.316406 236.074219 135.777344 236.75 C 135.847656 236.855469 135.902344 236.945312 135.972656 237.050781 C 136.351562 237.621094 136.695312 238.207031 137.027344 238.804688 C 137.132812 238.988281 137.234375 239.171875 137.328125 239.355469 C 137.695312 240.066406 138.039062 240.789062 138.347656 241.535156 C 138.347656 241.535156 138.347656 242.375 137.878906 243.636719 C 138.679688 246.082031 139.105469 248.628906 139.105469 251.222656 L 139.5625 261.851562 L 141.308594 261.851562 C 142.46875 261.851562 143.132812 262.617188 143.386719 263.332031 C 143.636719 264.042969 143.570312 265.0625 142.664062 265.773438 L 139.828125 268 L 140.035156 272.707031 C 140.390625 281.691406 133.414062 289.300781 124.460938 289.667969 C 124.117188 289.667969 123.773438 289.667969 123.417969 289.632812 L 122.933594 289.589844 C 123.0625 289.976562 123.1875 290.367188 123.3125 290.769531 C 123.53125 291.46875 123.75 292.183594 123.96875 292.894531 C 124.140625 293.457031 124.289062 294.03125 124.425781 294.59375 C 124.472656 294.765625 124.507812 294.9375 124.542969 295.121094 C 124.632812 295.53125 124.714844 295.933594 124.792969 296.347656 C 124.828125 296.53125 124.863281 296.714844 124.898438 296.886719 C 124.988281 297.425781 125.070312 297.964844 125.128906 298.503906 C 125.148438 298.65625 125.148438 298.816406 125.171875 298.964844 C 125.207031 299.367188 125.242188 299.757812 125.265625 300.15625 C 125.277344 300.398438 125.289062 300.640625 125.300781 300.882812 C 125.3125 301.191406 125.320312 301.511719 125.320312 301.820312 C 125.320312 302.0625 125.320312 302.316406 125.320312 302.554688 C 125.3125 303.050781 125.300781 303.53125 125.265625 304.015625 C 125.242188 304.394531 125.207031 304.78125 125.160156 305.160156 L 125.207031 305.160156 C 151.203125 306.355469 162.378906 316.238281 179.882812 333.589844 L 181.671875 335.367188 C 184.875 338.546875 188.179688 341.828125 191.875 345.363281 L 192.503906 345.972656 L 231.328125 322.847656 L 231.375 322.8125 C 231.492188 322.730469 242.875 314.296875 251.492188 311.980469 C 257.78125 310.28125 265.4375 309.753906 269.441406 309.578125 C 270.429688 309.578125 271.199219 310.1875 271.417969 311.070312 C 271.429688 311.128906 271.429688 311.1875 271.441406 311.253906 L 271.496094 311.851562 C 271.703125 311.4375 272.128906 311.1875 272.585938 311.222656 C 272.667969 311.222656 272.738281 311.210938 272.816406 311.234375 C 272.964844 311.277344 273.113281 311.347656 273.230469 311.4375 C 273.230469 311.4375 273.230469 311.449219 273.242188 311.449219 C 273.355469 311.542969 273.449219 311.65625 273.515625 311.785156 C 273.65625 312.035156 273.710938 312.347656 273.632812 312.644531 C 273.597656 312.757812 273.550781 312.875 273.503906 312.988281 L 273.847656 312.886719 C 275.375 312.414062 276.753906 311.988281 277.796875 311.667969 C 277.945312 311.621094 278.097656 311.601562 278.257812 311.601562 C 278.542969 311.601562 278.832031 311.691406 279.070312 311.839844 L 280.3125 311.40625 L 280.484375 311.347656 C 280.632812 311.289062 280.78125 311.277344 280.929688 311.277344 C 281.023438 311.277344 281.113281 311.324219 281.195312 311.347656 C 281.25 311.359375 281.296875 311.371094 281.355469 311.394531 C 281.617188 311.519531 281.835938 311.75 281.941406 312.046875 C 282.148438 312.644531 281.835938 313.296875 281.25 313.503906 L 282.332031 313.125 C 283.421875 312.734375 284.40625 312.378906 285.199219 312.09375 C 285.371094 312.035156 285.554688 312 285.726562 312 C 286.289062 312 286.804688 312.3125 287.082031 312.804688 C 287.105469 312.851562 287.128906 312.910156 287.152344 312.964844 C 287.460938 312.851562 287.746094 312.746094 288.023438 312.65625 C 288.089844 312.632812 288.171875 312.632812 288.242188 312.621094 C 288.367188 312.597656 288.503906 312.597656 288.632812 312.621094 C 288.632812 312.621094 288.644531 312.621094 288.644531 312.621094 C 288.757812 312.644531 288.871094 312.691406 288.976562 312.734375 C 289.011719 312.757812 289.042969 312.78125 289.078125 312.816406 C 289.148438 312.863281 289.214844 312.910156 289.273438 312.976562 C 289.367188 313.082031 289.445312 313.195312 289.492188 313.332031 C 289.710938 313.929688 289.398438 314.582031 288.804688 314.800781 C 288.804688 314.800781 288.804688 314.800781 288.792969 314.800781 L 288.792969 314.8125 L 289.859375 314.410156 C 290.066406 314.332031 290.25 314.308594 290.433594 314.308594 C 290.996094 314.308594 291.523438 314.617188 291.789062 315.113281 C 292.199219 315.859375 291.9375 316.777344 291.179688 317.210938 L 291.144531 317.234375 C 291.191406 317.292969 291.246094 317.339844 291.292969 317.40625 C 291.476562 317.660156 291.625 317.933594 291.753906 318.210938 C 291.765625 318.246094 291.789062 318.277344 291.796875 318.300781 C 292.027344 318.886719 291.742188 319.554688 291.15625 319.792969 C 291.074219 319.828125 290.996094 319.828125 290.914062 319.839844 C 290.46875 319.910156 290.03125 319.726562 289.789062 319.347656 L 289.765625 319.792969 C 289.746094 320.390625 289.386719 320.917969 288.859375 321.171875 C 282.699219 324.121094 274.066406 326.199219 265.667969 328 C 254.007812 330.5 249.09375 334.058594 245.527344 337.535156 L 245.457031 337.605469 L 245.398438 337.675781 C 245.179688 337.960938 223.515625 366.742188 198.289062 372.652344 L 198.425781 373.800781 C 198.472656 373.789062 198.519531 373.777344 198.554688 373.777344 L 303.125 373.777344 C 306.269531 373.757812 308.785156 376.269531 308.785156 379.367188 Z M 144.523438 351.972656 L 144.0625 351.652344 C 144.132812 351.9375 144.097656 352.25 143.9375 352.523438 C 143.71875 352.878906 143.339844 353.085938 142.949219 353.085938 C 142.859375 353.085938 142.765625 353.074219 142.664062 353.050781 L 139.378906 374.902344 L 140.539062 374.902344 L 140.710938 373.757812 L 179.375 373.757812 C 179.421875 373.765625 179.46875 373.777344 179.515625 373.789062 L 179.652344 372.644531 C 173.339844 371.117188 167.164062 368.050781 160.222656 363.003906 C 156.996094 360.660156 154.046875 358.617188 151.191406 356.644531 C 148.953125 355.09375 146.75 353.582031 144.523438 351.972656 Z M 573.625 364.171875 L 550.351562 471.546875 C 549.535156 475.3125 546.148438 478.03125 542.304688 478.03125 L 509.4375 478.03125 L 509.4375 479.179688 L 510.585938 479.179688 L 510.585938 556.839844 L 530.519531 556.839844 C 532.996094 556.839844 535.007812 558.847656 535.007812 561.324219 C 535.007812 563.804688 532.996094 565.8125 530.519531 565.8125 L 471.058594 565.8125 C 471.058594 565.8125 471.058594 565.410156 471.035156 564.664062 L 378.859375 564.664062 C 378.859375 564.792969 378.835938 564.917969 378.835938 565.042969 C 378.835938 565.34375 378.710938 565.605469 378.527344 565.8125 C 378.421875 565.929688 378.296875 566.007812 378.160156 566.078125 C 378.160156 566.078125 378.148438 566.089844 378.148438 566.089844 C 378.007812 566.15625 377.847656 566.191406 377.6875 566.191406 C 377.515625 566.191406 377.367188 566.15625 377.230469 566.089844 C 377.230469 566.089844 377.21875 566.078125 377.21875 566.078125 C 377.078125 566.007812 376.953125 565.929688 376.863281 565.8125 C 376.679688 565.605469 376.550781 565.34375 376.550781 565.042969 C 376.550781 564.917969 376.5625 564.792969 376.5625 564.664062 L 347.941406 564.664062 C 348.6875 558.261719 355.597656 550.8125 368.046875 543.019531 C 369.585938 542.058594 371.066406 540.863281 372.453125 539.496094 C 379.878906 532.117188 381.980469 520.757812 377.6875 511.21875 L 363.789062 480.40625 L 362.539062 480.417969 L 328.429688 480.84375 L 335.292969 429.96875 C 337.453125 413.957031 350.925781 401.875 367.082031 401.484375 L 416.683594 400.265625 L 416.683594 389.984375 L 417.832031 389.984375 L 417.832031 376.074219 C 417.636719 376.210938 417.417969 376.292969 417.191406 376.292969 C 417.019531 376.292969 416.84375 376.246094 416.683594 376.167969 C 416.558594 376.097656 416.433594 376.015625 416.328125 375.902344 C 416.28125 375.855469 416.273438 375.796875 416.238281 375.742188 C 415.949219 375.269531 416.007812 374.652344 416.445312 374.285156 L 416.476562 374.25 L 415.628906 374.765625 C 408.078125 379.414062 401.488281 381.765625 396.050781 381.765625 C 393.570312 381.765625 391.300781 381.273438 389.289062 380.285156 C 385.308594 378.324219 382.851562 375.429688 381.796875 371.4375 C 380.0625 364.882812 381.429688 352.03125 397.761719 328.078125 C 409.328125 311.105469 436.261719 306.757812 439.582031 306.273438 L 440.921875 306.953125 L 440.933594 304.964844 L 440.933594 293.890625 C 440.589844 293.949219 440.257812 294.007812 439.902344 294.039062 C 439.855469 294.039062 439.820312 294.050781 439.785156 294.050781 C 439.785156 294.050781 439.773438 294.050781 439.773438 294.050781 C 439.203125 294.050781 438.695312 293.617188 438.640625 293.03125 C 438.640625 293.03125 438.640625 293.019531 438.640625 293.019531 C 438.582031 292.433594 438.972656 291.929688 439.535156 291.804688 L 438.546875 291.882812 C 438.121094 291.917969 437.6875 291.941406 437.25 291.941406 L 436.917969 291.941406 C 432.671875 291.757812 428.609375 290.046875 425.476562 287.109375 L 425.050781 286.707031 L 424.476562 286.8125 C 424.214844 286.855469 423.972656 286.890625 423.71875 286.925781 C 424.042969 287.269531 424.351562 287.625 424.695312 287.945312 C 424.464844 287.992188 424.234375 288.027344 424.007812 288.0625 C 423.996094 288.0625 423.972656 288.0625 423.960938 288.074219 C 423.742188 288.109375 423.523438 288.128906 423.296875 288.152344 C 423.261719 288.152344 423.238281 288.152344 423.203125 288.164062 C 422.996094 288.1875 422.789062 288.199219 422.570312 288.210938 C 422.527344 288.210938 422.480469 288.210938 422.433594 288.210938 C 422.238281 288.222656 422.042969 288.222656 421.835938 288.222656 C 421.78125 288.222656 421.722656 288.222656 421.652344 288.222656 C 421.46875 288.222656 421.285156 288.210938 421.101562 288.199219 C 421.035156 288.199219 420.953125 288.1875 420.886719 288.175781 C 420.714844 288.164062 420.539062 288.140625 420.367188 288.121094 C 420.289062 288.109375 420.207031 288.097656 420.117188 288.085938 C 419.957031 288.0625 419.796875 288.027344 419.632812 288.003906 C 419.542969 287.980469 419.449219 287.957031 419.359375 287.9375 C 419.210938 287.902344 419.058594 287.867188 418.898438 287.820312 C 418.796875 287.785156 418.691406 287.753906 418.601562 287.730469 C 418.464844 287.683594 418.316406 287.636719 418.175781 287.578125 C 418.074219 287.535156 417.957031 287.488281 417.855469 287.441406 C 417.730469 287.382812 417.589844 287.328125 417.464844 287.269531 C 417.351562 287.210938 417.234375 287.15625 417.132812 287.085938 C 417.007812 287.015625 416.890625 286.960938 416.777344 286.890625 C 416.660156 286.824219 416.546875 286.742188 416.433594 286.660156 C 416.316406 286.59375 416.214844 286.523438 416.097656 286.445312 C 415.972656 286.351562 415.859375 286.25 415.742188 286.15625 C 415.640625 286.078125 415.546875 285.996094 415.445312 285.914062 C 415.320312 285.800781 415.191406 285.675781 415.078125 285.558594 C 414.988281 285.480469 414.90625 285.398438 414.8125 285.308594 C 414.675781 285.160156 414.550781 284.996094 414.414062 284.847656 C 414.34375 284.769531 414.273438 284.699219 414.207031 284.605469 C 414.011719 284.355469 413.816406 284.089844 413.644531 283.816406 C 407.054688 273.726562 419.09375 264.132812 419.09375 264.132812 L 419.027344 265.707031 C 419.449219 265.316406 419.738281 265.074219 419.804688 265.027344 L 420.792969 264.238281 L 419.910156 263.332031 C 419.898438 263.320312 419.679688 263.089844 419.347656 262.675781 L 419.09375 264.132812 C 419.09375 264.132812 404.796875 249.59375 424.363281 234.316406 C 424.972656 233.398438 425.636719 232.527344 426.347656 231.691406 C 426.40625 231.621094 426.460938 231.5625 426.519531 231.496094 C 426.820312 231.148438 427.128906 230.804688 427.449219 230.472656 C 427.507812 230.40625 427.574219 230.347656 427.632812 230.277344 C 428.390625 229.496094 429.195312 228.761719 430.03125 228.085938 C 430.066406 228.0625 430.101562 228.039062 430.125 228.015625 C 430.503906 227.71875 430.882812 227.421875 431.269531 227.132812 C 431.363281 227.066406 431.464844 226.996094 431.558594 226.925781 C 431.902344 226.6875 432.257812 226.445312 432.613281 226.214844 C 432.71875 226.148438 432.808594 226.089844 432.914062 226.019531 C 433.347656 225.746094 433.785156 225.492188 434.230469 225.238281 C 434.242188 225.230469 434.253906 225.230469 434.277344 225.21875 C 434.75 224.953125 435.230469 224.710938 435.722656 224.484375 C 435.816406 224.4375 435.917969 224.390625 436.011719 224.355469 C 436.390625 224.183594 436.78125 224.011719 437.171875 223.851562 C 437.320312 223.792969 437.457031 223.738281 437.605469 223.679688 C 437.972656 223.542969 438.339844 223.402344 438.707031 223.277344 C 438.847656 223.230469 438.996094 223.175781 439.132812 223.128906 C 439.601562 222.980469 440.085938 222.828125 440.566406 222.703125 C 440.601562 222.691406 440.636719 222.679688 440.660156 222.679688 C 441.175781 222.542969 441.703125 222.429688 442.230469 222.324219 C 442.378906 222.289062 442.53125 222.269531 442.691406 222.246094 C 443.070312 222.175781 443.460938 222.117188 443.847656 222.0625 C 444.03125 222.039062 444.214844 222.015625 444.398438 221.992188 C 444.777344 221.945312 445.15625 221.910156 445.546875 221.878906 C 445.71875 221.867188 445.878906 221.855469 446.054688 221.84375 C 446.605469 221.808594 447.15625 221.785156 447.707031 221.785156 C 448.496094 221.785156 449.289062 221.832031 450.058594 221.890625 C 450.160156 221.902344 450.253906 221.902344 450.355469 221.910156 C 451.101562 221.980469 451.835938 222.085938 452.558594 222.210938 C 452.675781 222.234375 452.789062 222.257812 452.90625 222.269531 C 453.628906 222.40625 454.339844 222.566406 455.039062 222.761719 C 455.128906 222.785156 455.222656 222.808594 455.3125 222.839844 C 456.050781 223.046875 456.773438 223.277344 457.472656 223.542969 C 457.484375 223.542969 457.496094 223.554688 457.507812 223.554688 C 459 224.117188 460.421875 224.792969 461.785156 225.585938 C 461.820312 225.605469 461.855469 225.617188 461.890625 225.640625 C 462.554688 226.03125 463.199219 226.445312 463.820312 226.882812 C 463.851562 226.902344 463.886719 226.925781 463.921875 226.949219 C 464.554688 227.398438 465.171875 227.878906 465.769531 228.375 C 465.769531 228.375 465.78125 228.382812 465.792969 228.382812 C 465.816406 228.394531 465.839844 228.40625 465.871094 228.429688 C 465.882812 228.429688 465.882812 228.441406 465.894531 228.441406 C 465.929688 228.464844 465.976562 228.488281 466.023438 228.523438 C 466.035156 228.535156 466.042969 228.535156 466.054688 228.546875 C 466.113281 228.578125 466.171875 228.625 466.25 228.671875 C 466.261719 228.683594 466.273438 228.683594 466.273438 228.695312 C 466.34375 228.742188 466.433594 228.796875 466.515625 228.855469 C 466.527344 228.867188 466.539062 228.867188 466.550781 228.878906 C 466.640625 228.945312 466.746094 229.015625 466.859375 229.097656 C 466.871094 229.097656 466.871094 229.109375 466.882812 229.109375 C 466.996094 229.1875 467.113281 229.28125 467.238281 229.382812 C 467.238281 229.382812 467.25 229.394531 467.25 229.394531 C 467.375 229.484375 467.515625 229.601562 467.652344 229.714844 C 467.664062 229.726562 467.664062 229.726562 467.675781 229.738281 C 467.8125 229.855469 467.960938 229.980469 468.109375 230.105469 C 468.121094 230.117188 468.121094 230.117188 468.132812 230.128906 C 468.28125 230.265625 468.441406 230.40625 468.617188 230.554688 C 468.617188 230.554688 468.625 230.566406 468.625 230.566406 C 468.789062 230.714844 468.960938 230.875 469.132812 231.035156 C 469.144531 231.046875 469.144531 231.046875 469.15625 231.058594 C 469.328125 231.230469 469.511719 231.402344 469.683594 231.585938 C 469.695312 231.597656 469.707031 231.609375 469.707031 231.609375 C 469.890625 231.792969 470.074219 231.988281 470.257812 232.195312 C 470.269531 232.207031 470.28125 232.21875 470.289062 232.230469 C 470.484375 232.4375 470.679688 232.652344 470.875 232.882812 C 470.886719 232.894531 470.886719 232.90625 470.898438 232.90625 C 471.09375 233.125 471.289062 233.355469 471.484375 233.59375 C 471.496094 233.617188 471.519531 233.628906 471.53125 233.652344 C 471.726562 233.894531 471.921875 234.132812 472.117188 234.386719 C 472.140625 234.410156 472.148438 234.433594 472.171875 234.457031 C 472.367188 234.71875 472.574219 234.984375 472.78125 235.257812 C 472.804688 235.28125 472.816406 235.304688 472.828125 235.328125 C 473.023438 235.589844 473.21875 235.878906 473.414062 236.164062 C 473.433594 236.199219 473.46875 236.246094 473.492188 236.28125 C 473.6875 236.566406 473.882812 236.867188 474.078125 237.175781 C 474.101562 237.222656 474.136719 237.253906 474.160156 237.300781 C 474.355469 237.613281 474.558594 237.933594 474.753906 238.265625 C 474.777344 238.3125 474.8125 238.347656 474.835938 238.390625 C 475.03125 238.714844 475.214844 239.046875 475.410156 239.378906 C 475.445312 239.4375 475.476562 239.492188 475.511719 239.5625 C 475.695312 239.894531 475.878906 240.25 476.074219 240.59375 C 476.109375 240.664062 476.15625 240.734375 476.191406 240.800781 C 476.375 241.15625 476.558594 241.511719 476.730469 241.890625 C 476.765625 241.972656 476.808594 242.054688 476.84375 242.132812 C 477.015625 242.488281 477.1875 242.867188 477.347656 243.234375 C 477.394531 243.339844 477.441406 243.441406 477.488281 243.542969 C 477.648438 243.914062 477.808594 244.300781 477.96875 244.679688 C 478.015625 244.796875 478.070312 244.910156 478.117188 245.035156 C 478.277344 245.414062 478.429688 245.816406 478.578125 246.21875 C 478.621094 246.355469 478.679688 246.484375 478.726562 246.609375 C 478.875 247 479.011719 247.402344 479.152344 247.800781 C 479.207031 247.964844 479.265625 248.113281 479.324219 248.285156 C 479.460938 248.6875 479.585938 249.097656 479.726562 249.511719 C 479.78125 249.695312 479.839844 249.855469 479.898438 250.039062 C 480.023438 250.441406 480.136719 250.867188 480.265625 251.28125 C 480.320312 251.488281 480.378906 251.671875 480.4375 251.875 C 480.550781 252.289062 480.664062 252.726562 480.769531 253.160156 C 480.828125 253.378906 480.882812 253.597656 480.941406 253.816406 C 481.042969 254.253906 481.148438 254.699219 481.25 255.148438 C 481.308594 255.378906 481.367188 255.605469 481.410156 255.847656 C 481.5625 256.535156 481.710938 257.246094 481.847656 257.96875 C 481.847656 257.96875 492.921875 263.308594 489.25 274.886719 C 489.089844 275.390625 488.90625 275.863281 488.710938 276.308594 C 488.675781 276.390625 488.640625 276.46875 488.605469 276.550781 C 488.421875 276.976562 488.21875 277.367188 488 277.746094 C 487.953125 277.8125 487.917969 277.894531 487.871094 277.960938 C 487.644531 278.339844 487.414062 278.695312 487.171875 279.03125 C 487.160156 279.054688 487.136719 279.0625 487.125 279.085938 C 486.886719 279.410156 486.632812 279.695312 486.371094 279.980469 C 486.324219 280.027344 486.277344 280.085938 486.230469 280.132812 C 485.96875 280.40625 485.703125 280.660156 485.417969 280.890625 C 485.359375 280.933594 485.300781 280.980469 485.246094 281.027344 C 484.957031 281.257812 484.683594 281.472656 484.382812 281.667969 C 484.351562 281.691406 484.316406 281.703125 484.292969 281.726562 C 484.015625 281.910156 483.730469 282.082031 483.441406 282.230469 C 483.398438 282.253906 483.351562 282.277344 483.304688 282.3125 C 483.007812 282.472656 482.707031 282.609375 482.421875 282.738281 C 482.363281 282.757812 482.296875 282.792969 482.238281 282.816406 C 481.941406 282.941406 481.652344 283.046875 481.355469 283.148438 C 481.308594 283.160156 481.273438 283.171875 481.226562 283.183594 C 480.953125 283.277344 480.664062 283.355469 480.390625 283.425781 C 480.355469 283.4375 480.320312 283.449219 480.285156 283.449219 C 480 283.515625 479.726562 283.574219 479.449219 283.632812 C 479.390625 283.644531 479.335938 283.65625 479.277344 283.667969 C 479.011719 283.710938 478.75 283.746094 478.484375 283.78125 C 478.4375 283.78125 478.40625 283.792969 478.371094 283.792969 C 478.117188 283.816406 477.878906 283.839844 477.648438 283.863281 C 477.625 283.863281 477.613281 283.863281 477.589844 283.863281 C 477.347656 283.871094 477.132812 283.882812 476.914062 283.882812 C 476.878906 283.882812 476.832031 283.882812 476.796875 283.882812 C 476.589844 283.882812 476.398438 283.882812 476.222656 283.882812 C 476.203125 283.882812 476.179688 283.882812 476.144531 283.882812 C 475.972656 283.882812 475.800781 283.871094 475.660156 283.863281 L 475.660156 283.78125 C 475.660156 283.78125 475.238281 284.195312 474.515625 284.746094 L 474.515625 306.46875 L 475.867188 306.230469 C 475.925781 306.21875 477.347656 305.964844 479.792969 305.964844 C 488.414062 305.964844 510.171875 309.222656 526.054688 339.371094 L 526.433594 340.085938 L 526.445312 339.773438 C 526.46875 339.351562 526.71875 339.015625 527.066406 338.832031 C 527.132812 338.800781 527.214844 338.765625 527.292969 338.742188 C 527.410156 338.707031 527.511719 338.683594 527.636719 338.683594 C 527.660156 338.683594 527.683594 338.695312 527.707031 338.707031 C 528.304688 338.777344 528.761719 339.28125 528.730469 339.890625 L 528.730469 339.921875 L 533.078125 299.011719 L 533.203125 299.011719 L 533.203125 297.851562 L 532.792969 250.292969 C 532.746094 249.144531 533.515625 248.191406 534.605469 247.984375 C 534.753906 247.964844 534.890625 247.941406 535.03125 247.941406 C 536.152344 247.941406 537.105469 248.789062 537.246094 249.902344 L 539.609375 269.652344 C 539.722656 269.378906 539.828125 269.089844 539.929688 268.839844 C 540.078125 268.449219 540.296875 268.105469 540.539062 267.78125 C 540.5625 267.761719 540.585938 267.726562 540.605469 267.691406 C 540.941406 267.277344 541.351562 266.933594 541.800781 266.667969 C 541.972656 264.191406 542.648438 261.6875 544.140625 261.183594 C 544.910156 260.921875 545.609375 260.78125 546.230469 260.78125 C 547.125 260.78125 547.824219 261.058594 548.421875 261.65625 L 548.894531 262.125 C 548.710938 261.667969 548.859375 261.148438 549.226562 260.839844 C 549.292969 260.78125 549.351562 260.714844 549.433594 260.679688 C 549.996094 260.390625 550.683594 260.632812 550.96875 261.195312 C 551.039062 261.332031 551.109375 261.484375 551.175781 261.644531 C 551.324219 261.976562 551.5 262.378906 551.671875 262.800781 C 553.324219 262.859375 554.527344 263.238281 555.066406 263.859375 L 555.332031 264.167969 C 555.308594 263.730469 555.539062 263.320312 555.9375 263.113281 C 555.984375 263.089844 556.03125 263.042969 556.089844 263.019531 C 556.683594 262.8125 557.339844 263.125 557.558594 263.71875 C 557.59375 263.8125 557.648438 263.996094 557.71875 264.203125 C 557.820312 264.511719 557.960938 264.960938 558.109375 265.476562 C 559.992188 266.003906 561.046875 267.324219 561.207031 269.4375 C 561.390625 271.730469 561.515625 274.472656 560.792969 275.265625 C 560.65625 275.414062 560.390625 275.609375 559.613281 275.621094 L 559.210938 275.632812 C 559.0625 276.332031 558.84375 276.964844 558.511719 277.515625 C 558.566406 279.660156 558.566406 287.132812 556.433594 299.183594 L 556.410156 299.320312 L 556.421875 299.457031 C 556.445312 299.789062 558.441406 333.070312 556.652344 352.949219 L 556.535156 354.199219 L 565.476562 354.199219 C 567.976562 354.199219 570.308594 355.3125 571.878906 357.265625 C 573.566406 359.203125 574.164062 361.730469 573.625 364.171875 Z M 488.941406 479.179688 L 488.941406 478.03125 L 477.015625 478.03125 L 477.292969 478.9375 L 458.640625 479.179688 L 452.007812 479.257812 L 450.757812 479.269531 L 450.964844 479.71875 C 460.878906 501.925781 465.503906 524.464844 467.652344 539.464844 C 468.5 545.398438 469.121094 551.261719 469.523438 556.894531 L 469.601562 557.964844 L 470.75 557.964844 C 470.726562 557.597656 470.703125 557.207031 470.667969 556.816406 L 487.804688 556.816406 L 487.804688 479.15625 L 488.941406 479.15625 Z M 488.941406 479.179688 " fill-opacity="1" fill-rule="nonzero"/></g><path fill="#de9d7c" d="M 273.644531 312.667969 C 273.722656 312.367188 273.675781 312.058594 273.527344 311.804688 C 273.90625 311.691406 274.273438 311.578125 274.628906 311.472656 C 274.640625 311.472656 274.640625 311.472656 274.640625 311.472656 C 274.984375 311.371094 275.320312 311.265625 275.640625 311.164062 C 275.6875 311.152344 275.71875 311.140625 275.765625 311.128906 C 276.042969 311.039062 276.316406 310.957031 276.582031 310.875 C 276.890625 310.785156 277.1875 310.683594 277.464844 310.601562 C 277.707031 310.519531 277.945312 310.5 278.1875 310.488281 C 278.222656 310.488281 278.269531 310.488281 278.300781 310.488281 C 278.542969 310.488281 278.773438 310.519531 279.003906 310.589844 C 279.027344 310.589844 279.035156 310.601562 279.058594 310.613281 C 279.542969 310.761719 279.976562 311.050781 280.324219 311.4375 L 278.714844 312.011719 C 276.84375 312.679688 274.871094 313.378906 273.011719 314.011719 C 273.296875 313.585938 273.515625 313.148438 273.644531 312.667969 Z M 34.796875 331.796875 C 34.796875 331.796875 34.714844 331.878906 34.554688 332.015625 C 34.554688 332.015625 34.542969 332.027344 34.542969 332.027344 C 34.464844 332.097656 34.371094 332.1875 34.257812 332.28125 C 34.257812 332.28125 34.257812 332.28125 34.246094 332.292969 C 34.128906 332.394531 34.003906 332.511719 33.867188 332.636719 C 33.855469 332.648438 33.84375 332.660156 33.832031 332.671875 C 33.683594 332.808594 33.535156 332.945312 33.363281 333.105469 C 33.351562 333.105469 33.351562 333.117188 33.339844 333.117188 C 33.167969 333.277344 32.984375 333.449219 32.789062 333.632812 C 32.777344 333.644531 32.765625 333.65625 32.753906 333.667969 C 32.558594 333.851562 32.339844 334.058594 32.121094 334.265625 C 32.097656 334.289062 32.089844 334.300781 32.066406 334.324219 C 31.617188 334.757812 31.125 335.230469 30.597656 335.757812 C 30.574219 335.78125 30.550781 335.804688 30.527344 335.828125 C 30.261719 336.089844 30 336.355469 29.722656 336.628906 C 29.699219 336.652344 29.679688 336.675781 29.65625 336.699219 C 29.09375 337.261719 28.507812 337.871094 27.886719 338.511719 C 27.851562 338.546875 27.820312 338.582031 27.796875 338.617188 C 27.496094 338.9375 27.1875 339.257812 26.878906 339.589844 C 26.867188 339.601562 26.84375 339.625 26.832031 339.636719 C 26.523438 339.96875 26.210938 340.3125 25.890625 340.65625 C 25.878906 340.667969 25.867188 340.691406 25.84375 340.703125 C 25.535156 341.046875 25.214844 341.402344 24.902344 341.761719 C 24.859375 341.804688 24.8125 341.863281 24.777344 341.910156 C 24.457031 342.265625 24.136719 342.632812 23.824219 343.011719 L 42.851562 343.011719 L 37.515625 329.066406 C 36.597656 329.949219 35.703125 330.855469 34.796875 331.796875 Z M 269.019531 317.660156 C 267.628906 318.050781 266.425781 318.324219 265.527344 318.417969 C 265.484375 318.417969 265.449219 318.429688 265.402344 318.429688 C 264.886719 318.429688 264.449219 318.074219 264.3125 317.578125 C 262.625 318.277344 261.765625 318.898438 261.558594 319.324219 C 261.523438 319.390625 261.511719 319.414062 261.617188 319.554688 C 262.316406 320.492188 263.96875 320.929688 266.367188 320.929688 C 266.171875 320.746094 266.035156 320.492188 266 320.207031 C 265.929688 319.574219 266.390625 319.011719 267.019531 318.945312 C 267.652344 318.875 268.582031 318.691406 269.707031 318.417969 C 274.664062 317.199219 283.535156 314.285156 288.046875 312.644531 C 288.113281 312.621094 288.195312 312.621094 288.265625 312.609375 C 288.21875 312.484375 288.171875 312.355469 288.101562 312.242188 C 287.460938 311.070312 286.058594 310.554688 284.808594 311.015625 C 284.570312 311.105469 284.304688 311.199219 284.039062 311.300781 C 283.878906 311.359375 283.71875 311.417969 283.558594 311.472656 C 283.488281 311.496094 283.433594 311.519531 283.363281 311.542969 C 282.914062 311.703125 282.457031 311.875 281.953125 312.046875 C 282.160156 312.644531 281.847656 313.296875 281.25 313.515625 L 279.484375 314.148438 C 275.765625 315.46875 271.957031 316.832031 269.019531 317.660156 Z M 293.152344 315.582031 C 293.140625 315.492188 293.117188 315.386719 293.09375 315.296875 C 293.085938 315.214844 293.074219 315.132812 293.050781 315.066406 C 292.992188 314.894531 292.921875 314.722656 292.832031 314.550781 C 292.1875 313.378906 290.789062 312.863281 289.539062 313.320312 C 289.527344 313.320312 289.515625 313.332031 289.515625 313.332031 C 289.734375 313.929688 289.421875 314.582031 288.828125 314.800781 C 285.027344 316.179688 275.984375 319.195312 270.542969 320.5625 C 274.882812 319.910156 280.496094 318.394531 286.910156 316.0625 C 288.527344 315.480469 290.308594 316.007812 291.339844 317.394531 C 291.523438 317.648438 291.671875 317.921875 291.796875 318.199219 C 292.28125 317.921875 292.648438 317.523438 292.878906 317.0625 C 292.878906 317.0625 292.878906 317.0625 292.878906 317.050781 C 292.957031 316.902344 293.015625 316.742188 293.0625 316.59375 C 293.074219 316.570312 293.074219 316.546875 293.074219 316.511719 C 293.105469 316.375 293.140625 316.234375 293.152344 316.085938 C 293.152344 316.03125 293.152344 315.972656 293.152344 315.914062 C 293.164062 315.8125 293.164062 315.695312 293.152344 315.582031 Z M 289.710938 319.140625 C 289.664062 319.011719 289.582031 318.886719 289.503906 318.773438 C 289.078125 318.210938 288.355469 317.992188 287.691406 318.222656 C 281.722656 320.390625 272.746094 323.191406 266.414062 323.191406 C 263.394531 323.191406 260.972656 322.558594 259.769531 320.90625 C 259.171875 320.09375 259.066406 319.164062 259.492188 318.300781 C 259.824219 317.636719 260.824219 315.59375 270.003906 313.449219 C 270.695312 313.285156 271.246094 312.746094 271.429688 312.058594 C 271.578125 311.519531 272.070312 311.199219 272.609375 311.234375 C 272.597656 311.09375 272.585938 310.957031 272.554688 310.820312 C 272.207031 309.386719 270.890625 308.398438 269.410156 308.457031 C 265.460938 308.617188 257.632812 309.15625 251.207031 310.886719 C 242.265625 313.296875 230.699219 321.917969 230.699219 321.917969 L 192.664062 344.570312 C 188.269531 340.359375 184.34375 336.433594 180.683594 332.808594 L 159.554688 363.921875 C 160.234375 364.414062 160.921875 364.894531 161.609375 365.367188 C 161.792969 365.492188 161.988281 365.621094 162.171875 365.746094 C 162.699219 366.101562 163.238281 366.457031 163.78125 366.800781 C 163.976562 366.925781 164.179688 367.054688 164.375 367.179688 C 164.949219 367.535156 165.535156 367.890625 166.121094 368.234375 C 166.269531 368.328125 166.417969 368.40625 166.566406 368.5 C 168.898438 369.832031 171.34375 371.035156 173.890625 372.023438 C 173.9375 372.035156 173.96875 372.058594 174.015625 372.070312 C 174.832031 372.378906 175.65625 372.664062 176.496094 372.929688 C 176.5625 372.953125 176.632812 372.976562 176.714844 373 C 177.585938 373.273438 178.480469 373.527344 179.375 373.746094 C 184.171875 374.902344 189.359375 375.269531 195.054688 374.433594 C 196.234375 374.261719 197.417969 374.019531 198.585938 373.746094 C 224.535156 367.671875 246.363281 338.339844 246.363281 338.339844 C 249.335938 335.4375 253.914062 331.683594 265.941406 329.101562 C 275.273438 327.105469 283.386719 325.0625 289.390625 322.191406 C 289.605469 322.089844 289.800781 321.953125 289.984375 321.800781 C 290.042969 321.757812 290.089844 321.699219 290.132812 321.652344 C 290.25 321.539062 290.363281 321.414062 290.457031 321.285156 C 290.5 321.226562 290.535156 321.171875 290.570312 321.101562 C 290.652344 320.953125 290.71875 320.804688 290.777344 320.65625 C 290.800781 320.597656 290.824219 320.550781 290.835938 320.492188 C 290.890625 320.277344 290.9375 320.058594 290.949219 319.839844 C 290.445312 319.921875 289.917969 319.65625 289.710938 319.140625 Z M 141.320312 260.738281 L 140.667969 260.738281 L 140.253906 251.257812 C 140.253906 247.8125 139.574219 244.566406 138.359375 241.570312 C 138.359375 241.570312 138.347656 249.097656 125.644531 253.105469 C 127.398438 253.691406 128.960938 254.734375 130.121094 256.191406 C 133.527344 260.472656 132.632812 266.875 128.109375 270.480469 C 126.171875 272.027344 123.773438 272.867188 121.363281 272.867188 C 120.972656 272.867188 120.582031 272.84375 120.191406 272.796875 C 119.5625 272.730469 119.113281 272.15625 119.183594 271.523438 C 119.25 270.894531 119.824219 270.445312 120.457031 270.515625 C 122.625 270.765625 124.898438 270.101562 126.675781 268.679688 C 130.199219 265.867188 130.933594 260.898438 128.316406 257.613281 C 126.800781 255.722656 124.382812 254.710938 121.855469 254.894531 C 121.398438 254.929688 120.996094 254.6875 120.777344 254.320312 C 120.136719 254.449219 119.46875 254.5625 118.769531 254.675781 C 118.769531 254.675781 111.171875 263.558594 116.164062 272.925781 C 118 276.296875 120.800781 282.933594 123.3125 290.816406 C 123.703125 290.851562 124.082031 290.851562 124.507812 290.851562 C 134.136719 290.460938 141.5625 282.324219 141.183594 272.695312 L 141 268.574219 L 143.375 266.714844 C 145.886719 264.753906 144.5 260.738281 141.320312 260.738281 Z M 141.320312 260.738281 " fill-opacity="1" fill-rule="nonzero"/><path fill="#fcc64d" d="M 218.980469 215.601562 L 218.980469 216.140625 C 218.980469 217.402344 217.949219 218.433594 216.6875 218.433594 C 215.421875 218.433594 214.390625 217.402344 214.390625 216.140625 L 214.390625 215.601562 C 214.390625 214.335938 215.421875 213.304688 216.6875 213.304688 C 217.949219 213.304688 218.980469 214.324219 218.980469 215.601562 Z M 216.871094 170.496094 C 213.277344 170.453125 209.890625 171.804688 207.332031 174.332031 C 204.773438 176.855469 203.375 180.21875 203.375 183.808594 C 203.375 185.074219 204.40625 186.105469 205.667969 186.105469 C 206.929688 186.105469 207.964844 185.074219 207.964844 183.808594 C 207.964844 181.457031 208.882812 179.253906 210.558594 177.601562 C 212.234375 175.949219 214.503906 175.089844 216.800781 175.089844 C 221.390625 175.15625 225.328125 179.082031 225.394531 183.671875 C 225.441406 186.726562 223.914062 189.527344 221.332031 191.167969 C 216.984375 193.921875 214.378906 198.441406 214.378906 203.25 L 214.378906 204.066406 C 214.378906 205.328125 215.410156 206.363281 216.675781 206.363281 C 217.9375 206.363281 218.96875 205.328125 218.96875 204.066406 L 218.96875 203.25 C 218.96875 200.027344 220.769531 196.960938 223.789062 195.046875 C 227.726562 192.542969 230.042969 188.273438 229.976562 183.613281 C 229.882812 176.476562 224.007812 170.589844 216.871094 170.496094 Z M 135.121094 455.515625 C 134.765625 455.480469 134.398438 455.445312 134.03125 455.445312 L 112.550781 455.445312 L 99.246094 394.046875 L 89.859375 350.746094 C 88.882812 346.222656 84.878906 343 80.265625 343 L 10.972656 343 C 4.707031 343 0.046875 348.785156 1.378906 354.898438 L 13.058594 408.816406 L 25.742188 467.335938 C 26.175781 469.355469 27.234375 471.121094 28.667969 472.453125 C 28.886719 472.648438 29.105469 472.832031 29.332031 473.015625 C 29.367188 473.039062 29.402344 473.0625 29.425781 473.085938 C 29.621094 473.234375 29.828125 473.382812 30.046875 473.507812 C 30.101562 473.542969 30.148438 473.578125 30.207031 473.601562 C 30.402344 473.714844 30.597656 473.828125 30.792969 473.933594 C 30.859375 473.96875 30.929688 474.003906 30.996094 474.035156 C 31.179688 474.128906 31.375 474.21875 31.570312 474.300781 C 31.652344 474.335938 31.730469 474.371094 31.824219 474.402344 C 32.007812 474.472656 32.203125 474.542969 32.398438 474.597656 C 32.488281 474.632812 32.582031 474.65625 32.683594 474.691406 C 32.867188 474.75 33.0625 474.792969 33.257812 474.828125 C 33.363281 474.851562 33.453125 474.875 33.558594 474.898438 C 33.761719 474.933594 33.96875 474.964844 34.175781 474.988281 C 34.269531 475 34.359375 475.011719 34.453125 475.023438 C 34.75 475.046875 35.050781 475.070312 35.359375 475.070312 L 134.03125 475.070312 C 139.460938 475.070312 143.855469 470.675781 143.855469 465.246094 C 143.855469 460.21875 140.035156 456.054688 135.121094 455.515625 Z M 382.785156 282.644531 L 367.714844 278.605469 C 367.691406 278.605469 367.667969 278.605469 367.644531 278.605469 L 254.363281 278.605469 C 246.191406 278.605469 239.570312 271.984375 239.570312 263.8125 L 239.570312 223.714844 C 239.570312 215.542969 246.191406 208.921875 254.363281 208.921875 L 367.644531 208.921875 C 375.816406 208.921875 382.4375 215.542969 382.4375 223.714844 L 382.4375 263.824219 C 382.4375 264.085938 382.417969 264.351562 382.40625 264.617188 L 386.296875 279.144531 C 386.847656 281.277344 384.90625 283.21875 382.785156 282.644531 Z M 327.707031 257.269531 C 327.707031 256.640625 327.191406 256.121094 326.5625 256.121094 L 257.347656 256.121094 C 256.714844 256.121094 256.199219 256.640625 256.199219 257.269531 C 256.199219 257.902344 256.714844 258.417969 257.347656 258.417969 L 326.5625 258.417969 C 327.191406 258.417969 327.707031 257.902344 327.707031 257.269531 Z M 365.808594 243.761719 C 365.808594 243.132812 365.292969 242.617188 364.664062 242.617188 L 257.335938 242.617188 C 256.703125 242.617188 256.1875 243.132812 256.1875 243.761719 C 256.1875 244.394531 256.703125 244.910156 257.335938 244.910156 L 364.664062 244.910156 C 365.292969 244.910156 365.808594 244.40625 365.808594 243.761719 Z M 365.808594 230.253906 C 365.808594 229.625 365.292969 229.109375 364.664062 229.109375 L 257.335938 229.109375 C 256.703125 229.109375 256.1875 229.625 256.1875 230.253906 C 256.1875 230.886719 256.703125 231.402344 257.335938 231.402344 L 364.664062 231.402344 C 365.292969 231.402344 365.808594 230.898438 365.808594 230.253906 Z M 557.84375 302.625 C 557.84375 302.613281 557.84375 302.601562 557.84375 302.589844 C 557.832031 302.292969 557.808594 302.027344 557.796875 301.765625 C 557.796875 301.695312 557.785156 301.617188 557.785156 301.546875 C 557.777344 301.328125 557.765625 301.121094 557.753906 300.925781 C 557.753906 300.871094 557.742188 300.8125 557.742188 300.753906 C 557.730469 300.570312 557.71875 300.410156 557.71875 300.261719 C 557.71875 300.191406 557.707031 300.136719 557.707031 300.078125 C 557.695312 299.972656 557.695312 299.871094 557.695312 299.777344 C 557.695312 299.734375 557.695312 299.6875 557.683594 299.652344 C 557.671875 299.480469 557.671875 299.367188 557.671875 299.367188 L 532.171875 297.839844 L 532.171875 297.816406 L 527.832031 338.671875 C 528.429688 338.742188 528.890625 339.246094 528.855469 339.855469 L 528.40625 350.101562 C 528.382812 350.722656 527.867188 351.203125 527.257812 351.203125 C 527.25 351.203125 527.226562 351.203125 527.214844 351.203125 C 526.582031 351.183594 526.089844 350.640625 526.113281 350.011719 L 526.558594 339.761719 C 526.582031 339.339844 526.835938 339.003906 527.179688 338.820312 C 512.683594 311.300781 493.359375 305.757812 483.019531 304.921875 C 483.019531 304.921875 483.007812 304.921875 483.007812 304.921875 C 482.800781 304.910156 482.605469 304.886719 482.410156 304.875 C 482.386719 304.875 482.351562 304.875 482.316406 304.863281 C 482.132812 304.851562 481.960938 304.839844 481.789062 304.828125 C 481.746094 304.828125 481.699219 304.828125 481.652344 304.816406 C 481.492188 304.804688 481.34375 304.804688 481.195312 304.792969 C 481.136719 304.792969 481.078125 304.792969 481.03125 304.78125 C 480.894531 304.78125 480.757812 304.769531 480.621094 304.769531 C 480.5625 304.769531 480.492188 304.769531 480.4375 304.769531 C 480.308594 304.769531 480.195312 304.769531 480.070312 304.769531 C 480 304.769531 479.929688 304.769531 479.863281 304.769531 C 479.757812 304.769531 479.65625 304.769531 479.550781 304.769531 C 479.484375 304.769531 479.402344 304.769531 479.335938 304.769531 C 479.242188 304.769531 479.152344 304.769531 479.058594 304.78125 C 478.980469 304.78125 478.910156 304.78125 478.828125 304.792969 C 478.75 304.792969 478.667969 304.792969 478.589844 304.804688 C 478.507812 304.804688 478.4375 304.816406 478.359375 304.816406 C 478.289062 304.816406 478.222656 304.828125 478.164062 304.828125 C 478.082031 304.828125 478.003906 304.839844 477.921875 304.839844 C 477.867188 304.839844 477.820312 304.851562 477.761719 304.851562 C 477.683594 304.851562 477.601562 304.863281 477.519531 304.863281 C 477.476562 304.863281 477.429688 304.875 477.382812 304.875 C 477.304688 304.886719 477.234375 304.886719 477.164062 304.898438 C 477.132812 304.898438 477.085938 304.910156 477.050781 304.910156 C 476.980469 304.921875 476.902344 304.921875 476.84375 304.933594 C 476.820312 304.933594 476.785156 304.933594 476.761719 304.945312 C 476.695312 304.953125 476.625 304.953125 476.558594 304.964844 C 476.535156 304.964844 476.523438 304.964844 476.5 304.976562 C 476.429688 304.988281 476.375 304.988281 476.316406 305 C 476.304688 305 476.28125 305 476.269531 305.011719 C 476.210938 305.023438 476.167969 305.023438 476.121094 305.035156 C 476.109375 305.035156 476.085938 305.035156 476.074219 305.046875 C 476.039062 305.046875 475.996094 305.058594 475.960938 305.058594 C 475.949219 305.058594 475.9375 305.058594 475.925781 305.058594 C 475.902344 305.058594 475.867188 305.070312 475.84375 305.070312 C 475.835938 305.070312 475.824219 305.070312 475.8125 305.070312 C 475.800781 305.070312 475.789062 305.070312 475.777344 305.082031 C 475.765625 305.082031 475.753906 305.082031 475.753906 305.082031 C 475.753906 305.082031 467.445312 310.886719 459.617188 315.285156 C 454.75 318.015625 450.058594 320.195312 447.671875 320.070312 C 443.320312 319.851562 439.808594 305.21875 439.785156 305.09375 L 439.773438 305.09375 C 439.773438 305.09375 409.535156 308.765625 396.808594 327.4375 C 390.378906 336.859375 367.851562 371.046875 388.773438 381.332031 C 389.210938 381.546875 389.644531 381.71875 390.09375 381.894531 C 390.207031 381.9375 390.324219 381.972656 390.4375 382.019531 C 390.875 382.167969 391.308594 382.304688 391.757812 382.421875 C 391.78125 382.421875 391.792969 382.433594 391.816406 382.433594 C 392.273438 382.546875 392.746094 382.640625 393.226562 382.707031 C 393.339844 382.730469 393.457031 382.742188 393.582031 382.753906 C 394.03125 382.8125 394.488281 382.855469 394.949219 382.890625 C 394.984375 382.890625 395.003906 382.890625 395.039062 382.902344 C 395.535156 382.925781 396.027344 382.925781 396.519531 382.914062 C 396.636719 382.914062 396.75 382.902344 396.875 382.902344 C 397.347656 382.878906 397.816406 382.855469 398.289062 382.800781 C 398.324219 382.800781 398.355469 382.800781 398.390625 382.789062 C 398.90625 382.730469 399.425781 382.648438 399.953125 382.570312 C 400.066406 382.546875 400.171875 382.535156 400.285156 382.511719 C 400.777344 382.421875 401.273438 382.316406 401.765625 382.203125 C 401.800781 382.191406 401.835938 382.191406 401.867188 382.179688 C 402.40625 382.054688 402.949219 381.902344 403.488281 381.742188 C 403.589844 381.710938 403.683594 381.6875 403.785156 381.652344 C 404.300781 381.492188 404.816406 381.332031 405.335938 381.148438 C 405.359375 381.136719 405.390625 381.125 405.414062 381.125 C 405.976562 380.929688 406.539062 380.710938 407.101562 380.480469 C 407.183594 380.445312 407.261719 380.414062 407.34375 380.378906 C 407.882812 380.160156 408.421875 379.917969 408.960938 379.679688 C 408.984375 379.667969 408.996094 379.667969 409.019531 379.65625 C 409.59375 379.390625 410.167969 379.117188 410.75 378.828125 C 410.808594 378.792969 410.867188 378.769531 410.933594 378.738281 C 411.496094 378.449219 412.058594 378.164062 412.621094 377.851562 C 412.621094 377.851562 412.632812 377.839844 412.632812 377.839844 C 413.21875 377.519531 413.816406 377.199219 414.402344 376.855469 C 414.433594 376.832031 414.480469 376.808594 414.515625 376.785156 C 415.089844 376.453125 415.675781 376.109375 416.25 375.753906 C 415.960938 375.28125 416.019531 374.664062 416.457031 374.296875 L 446.488281 348.117188 C 446.511719 348.09375 446.546875 348.09375 446.570312 348.070312 L 435.378906 333.039062 C 435.277344 333.199219 435.148438 333.335938 434.976562 333.4375 L 398.128906 353.363281 C 397.957031 353.453125 397.773438 353.5 397.589844 353.5 C 397.175781 353.5 396.785156 353.28125 396.578125 352.902344 C 396.28125 352.339844 396.484375 351.652344 397.039062 351.34375 L 433.886719 331.417969 C 434.4375 331.121094 435.128906 331.328125 435.4375 331.867188 C 444.640625 326.566406 459.136719 319.792969 471.015625 321.402344 C 471.265625 321.433594 471.496094 321.46875 471.75 321.503906 C 479.265625 322.546875 485.074219 323.683594 488.261719 324.382812 C 489.8125 324.71875 490.8125 326.230469 490.523438 327.792969 C 490.316406 328.917969 489.480469 329.789062 488.421875 330.078125 C 488.171875 330.144531 487.90625 330.191406 487.632812 330.191406 L 471.015625 330.191406 L 489.675781 337.125 C 491.429688 337.777344 492.234375 339.785156 491.429688 341.472656 C 490.789062 342.816406 489.285156 343.539062 487.828125 343.183594 L 485.875 342.710938 C 485.65625 343 485.324219 343.160156 484.96875 343.160156 C 484.855469 343.160156 484.726562 343.136719 484.613281 343.101562 L 484.0625 342.917969 L 483.683594 343.628906 C 482.8125 345.273438 480.964844 346.15625 479.140625 345.8125 L 467.363281 343.539062 L 473.433594 348.09375 C 474.871094 349.171875 474.914062 351.308594 473.527344 352.445312 C 472.609375 353.191406 471.324219 353.269531 470.324219 352.652344 L 462.578125 347.832031 C 462.578125 347.832031 453.304688 350.574219 448.335938 349.335938 C 448.277344 349.527344 448.175781 349.703125 448.015625 349.851562 L 417.980469 376.027344 C 417.761719 376.222656 417.5 376.316406 417.222656 376.316406 C 417.050781 376.316406 416.878906 376.269531 416.71875 376.1875 L 416.71875 390.019531 L 491.742188 390.019531 L 497.71875 359.503906 C 497.46875 359.457031 497.214844 359.339844 497.042969 359.125 L 493.414062 354.648438 C 493.015625 354.152344 493.09375 353.429688 493.589844 353.03125 C 494.082031 352.628906 494.804688 352.707031 495.207031 353.203125 L 498.222656 356.929688 L 498.832031 357.675781 C 499.210938 358.136719 499.152344 358.800781 498.730469 359.203125 C 502.734375 363.253906 508.519531 368.453125 516.714844 374.546875 C 531.828125 385.804688 553.734375 378.175781 557.03125 360.097656 C 557.40625 358.042969 557.695312 355.65625 557.9375 353.0625 C 557.992188 352.433594 558.050781 351.800781 558.097656 351.148438 C 558.097656 351.136719 558.097656 351.125 558.097656 351.125 C 559.289062 334.726562 558.28125 311.164062 557.84375 302.625 Z M 557.84375 302.625 " fill-opacity="1" fill-rule="nonzero"/><path fill="#9d5e52" d="M 551.28125 261.632812 C 551.636719 261.632812 552.039062 261.644531 552.460938 261.675781 C 552.472656 261.675781 552.472656 261.675781 552.484375 261.675781 C 552.679688 261.699219 552.875 261.722656 553.070312 261.746094 C 553.128906 261.757812 553.183594 261.769531 553.253906 261.78125 C 553.402344 261.804688 553.550781 261.839844 553.691406 261.859375 C 553.757812 261.871094 553.839844 261.894531 553.90625 261.917969 C 554.046875 261.953125 554.171875 261.988281 554.308594 262.035156 C 554.378906 262.054688 554.457031 262.078125 554.527344 262.113281 C 554.652344 262.160156 554.78125 262.21875 554.894531 262.273438 C 554.964844 262.308594 555.03125 262.332031 555.089844 262.367188 C 555.214844 262.433594 555.34375 262.515625 555.457031 262.59375 C 555.503906 262.628906 555.5625 262.664062 555.605469 262.699219 C 555.765625 262.824219 555.917969 262.953125 556.042969 263.101562 C 555.550781 263.363281 555.296875 263.9375 555.492188 264.476562 C 556.777344 268.140625 558.175781 274.667969 556.457031 276.621094 C 555.824219 277.332031 555.410156 277.285156 555.273438 277.261719 C 554.5625 277.183594 553.78125 276.320312 553.253906 275.574219 C 553.3125 275.496094 553.378906 275.425781 553.4375 275.347656 C 555.285156 272.269531 552.679688 264.660156 551.28125 261.632812 Z M 545.035156 266.128906 C 546.230469 266.382812 547.285156 267.117188 547.917969 268.171875 C 548.546875 269.21875 548.71875 270.492188 548.386719 271.660156 L 548.363281 271.765625 C 548.925781 273.222656 549.765625 274.472656 550.945312 274.449219 C 551.246094 274.4375 551.371094 274.347656 551.476562 274.164062 C 552.566406 272.363281 550.742188 265.683594 549.019531 262.21875 C 548.777344 261.734375 548.925781 261.171875 549.328125 260.839844 C 549.214844 260.726562 549.078125 260.609375 548.949219 260.507812 C 548.914062 260.484375 548.882812 260.449219 548.847656 260.425781 C 548.71875 260.335938 548.59375 260.242188 548.457031 260.164062 C 548.398438 260.128906 548.332031 260.105469 548.261719 260.070312 C 548.066406 259.980469 547.859375 259.898438 547.640625 259.828125 C 547.492188 259.785156 547.34375 259.738281 547.183594 259.714844 C 547.078125 259.691406 546.964844 259.691406 546.851562 259.679688 C 546.679688 259.65625 546.503906 259.644531 546.320312 259.644531 C 546.207031 259.644531 546.09375 259.644531 545.964844 259.65625 C 545.757812 259.667969 545.542969 259.703125 545.3125 259.738281 C 545.199219 259.761719 545.09375 259.773438 544.980469 259.796875 C 544.625 259.863281 544.257812 259.96875 543.867188 260.09375 C 543.671875 260.164062 543.488281 260.253906 543.304688 260.359375 C 543.246094 260.390625 543.199219 260.425781 543.144531 260.472656 C 543.027344 260.554688 542.914062 260.632812 542.808594 260.738281 C 542.753906 260.78125 542.707031 260.839844 542.648438 260.886719 C 542.546875 260.988281 542.453125 261.09375 542.375 261.207031 C 542.328125 261.265625 542.28125 261.308594 542.246094 261.367188 C 542.144531 261.515625 542.054688 261.667969 541.960938 261.828125 C 541.949219 261.859375 541.925781 261.882812 541.902344 261.90625 C 541.800781 262.101562 541.707031 262.296875 541.617188 262.503906 C 541.59375 262.5625 541.570312 262.617188 541.546875 262.675781 C 541.492188 262.824219 541.433594 262.984375 541.375 263.148438 C 541.351562 263.226562 541.328125 263.296875 541.308594 263.375 C 541.261719 263.523438 541.214844 263.675781 541.179688 263.824219 C 541.15625 263.902344 541.144531 263.972656 541.125 264.054688 C 541.089844 264.226562 541.042969 264.386719 541.019531 264.558594 C 541.007812 264.617188 540.996094 264.660156 540.984375 264.71875 C 540.953125 264.9375 540.90625 265.15625 540.882812 265.371094 C 540.871094 265.417969 540.871094 265.476562 540.859375 265.523438 C 540.835938 265.683594 540.824219 265.84375 540.800781 265.992188 C 540.789062 266.0625 540.789062 266.140625 540.777344 266.210938 C 540.769531 266.335938 540.757812 266.464844 540.746094 266.578125 C 540.746094 266.648438 540.734375 266.714844 540.734375 266.785156 C 540.722656 266.898438 540.722656 267.015625 540.710938 267.128906 C 540.710938 267.1875 540.710938 267.242188 540.699219 267.289062 C 540.699219 267.425781 540.6875 267.566406 540.6875 267.679688 C 540.6875 267.679688 540.6875 267.691406 540.6875 267.691406 C 541.730469 266.417969 543.371094 265.773438 545.035156 266.128906 Z M 468.25 535.710938 C 468.132812 534.953125 468.007812 534.183594 467.871094 533.402344 C 467.835938 533.164062 467.789062 532.933594 467.753906 532.691406 C 467.582031 531.683594 467.398438 530.648438 467.214844 529.617188 C 467.191406 529.523438 467.179688 529.421875 467.15625 529.320312 C 466.984375 528.367188 466.800781 527.414062 466.605469 526.4375 C 466.5625 526.183594 466.503906 525.933594 466.457031 525.679688 C 466.273438 524.726562 466.066406 523.765625 465.871094 522.789062 C 465.851562 522.652344 465.816406 522.523438 465.792969 522.398438 C 465.550781 521.25 465.296875 520.101562 465.035156 518.933594 C 465.011719 518.816406 464.976562 518.703125 464.953125 518.597656 C 464.714844 517.554688 464.460938 516.5 464.207031 515.433594 C 464.164062 515.238281 464.117188 515.03125 464.058594 514.835938 C 463.472656 512.4375 462.832031 510.003906 462.144531 507.523438 C 462.109375 507.421875 462.085938 507.308594 462.050781 507.191406 C 461.730469 506.042969 461.386719 504.886719 461.039062 503.726562 C 461.007812 503.589844 460.960938 503.460938 460.925781 503.324219 C 460.15625 500.789062 459.34375 498.230469 458.457031 495.648438 C 458.414062 495.519531 458.367188 495.394531 458.332031 495.269531 C 457.90625 494.039062 457.472656 492.8125 457.023438 491.585938 C 457 491.515625 456.976562 491.445312 456.957031 491.390625 C 456.003906 488.785156 454.96875 486.167969 453.878906 483.550781 C 453.824219 483.402344 453.753906 483.253906 453.695312 483.101562 C 453.15625 481.828125 452.605469 480.542969 452.042969 479.269531 L 394.949219 480.003906 L 408.675781 510.453125 C 412.976562 519.976562 410.867188 531.339844 403.441406 538.730469 C 403.328125 538.84375 403.210938 538.945312 403.085938 539.0625 C 403.085938 541.703125 403.085938 544.511719 403.085938 546.292969 C 425.832031 549.136719 448.566406 549.308594 468.808594 539.335938 C 468.683594 538.417969 468.535156 537.476562 468.398438 536.535156 C 468.328125 536.25 468.28125 535.976562 468.25 535.710938 Z M 489.640625 337.101562 L 470.980469 330.167969 L 487.597656 330.167969 C 487.871094 330.167969 488.136719 330.121094 488.390625 330.054688 C 489.445312 329.753906 490.28125 328.894531 490.488281 327.769531 C 490.777344 326.210938 489.777344 324.707031 488.230469 324.363281 C 485.039062 323.671875 479.21875 322.523438 471.714844 321.480469 C 471.460938 321.445312 471.230469 321.414062 470.980469 321.378906 C 459.101562 319.769531 444.605469 326.53125 435.402344 331.84375 C 435.402344 331.84375 435.414062 331.855469 435.414062 331.855469 C 435.621094 332.234375 435.574219 332.671875 435.355469 333.015625 L 446.546875 348.050781 C 447.015625 347.691406 447.695312 347.75 448.085938 348.210938 C 448.359375 348.53125 448.417969 348.945312 448.289062 349.324219 C 453.261719 350.5625 462.53125 347.820312 462.53125 347.820312 L 470.28125 352.640625 C 471.277344 353.257812 472.5625 353.179688 473.480469 352.433594 C 474.871094 351.296875 474.835938 349.160156 473.390625 348.082031 L 467.320312 343.527344 L 479.09375 345.800781 C 480.917969 346.15625 482.765625 345.273438 483.636719 343.617188 L 484.015625 342.90625 L 471.324219 338.71875 C 470.726562 338.523438 470.394531 337.871094 470.589844 337.273438 C 470.785156 336.675781 471.4375 336.34375 472.035156 336.539062 L 485.277344 340.910156 C 485.875 341.105469 486.207031 341.761719 486.011719 342.355469 C 485.96875 342.484375 485.910156 342.597656 485.828125 342.6875 L 487.78125 343.160156 C 489.238281 343.503906 490.730469 342.792969 491.382812 341.449219 C 492.199219 339.761719 491.382812 337.753906 489.640625 337.101562 Z M 562.457031 269.34375 C 562.421875 268.917969 562.355469 268.527344 562.261719 268.171875 C 562.238281 268.070312 562.207031 267.964844 562.171875 267.875 C 562.089844 267.609375 562 267.359375 561.882812 267.128906 C 561.851562 267.058594 561.828125 266.980469 561.78125 266.910156 C 561.632812 266.636719 561.472656 266.382812 561.296875 266.152344 C 561.265625 266.109375 561.21875 266.0625 561.171875 266.015625 C 561.023438 265.84375 560.863281 265.683594 560.703125 265.535156 C 560.644531 265.476562 560.585938 265.429688 560.519531 265.382812 C 560.335938 265.234375 560.152344 265.109375 559.96875 264.996094 C 559.945312 264.984375 559.910156 264.960938 559.886719 264.9375 C 559.667969 264.8125 559.449219 264.707031 559.222656 264.617188 C 559.164062 264.59375 559.105469 264.570312 559.050781 264.546875 C 558.878906 264.476562 558.707031 264.421875 558.53125 264.375 C 558.488281 264.363281 558.441406 264.339844 558.394531 264.328125 C 558.1875 264.269531 557.980469 264.226562 557.796875 264.191406 C 558.542969 266.453125 561.046875 274.839844 558.144531 278.125 C 557.132812 279.257812 556.113281 279.546875 555.34375 279.546875 C 555.203125 279.546875 555.078125 279.535156 554.964844 279.523438 C 553.207031 279.316406 551.886719 277.6875 551.210938 276.6875 C 551.128906 276.699219 551.050781 276.722656 550.957031 276.722656 C 550.925781 276.722656 550.902344 276.722656 550.867188 276.722656 C 549.375 276.722656 548.261719 275.941406 547.433594 274.863281 L 546.484375 278.214844 C 547.320312 279.707031 549.996094 284.882812 550.222656 291.011719 C 550.246094 291.609375 549.777344 292.113281 549.179688 292.136719 C 549.167969 292.136719 549.15625 292.136719 549.132812 292.136719 C 548.558594 292.136719 548.078125 291.675781 548.054688 291.089844 C 548.042969 290.746094 548.019531 290.402344 547.984375 290.058594 C 547.457031 283.964844 544.417969 278.984375 544.394531 278.925781 C 544.234375 278.664062 544.1875 278.351562 544.269531 278.066406 L 546.265625 271.042969 C 546.4375 270.433594 546.355469 269.804688 546.023438 269.261719 C 545.691406 268.722656 545.175781 268.355469 544.554688 268.230469 C 543.476562 268 542.410156 268.585938 542.007812 269.597656 C 540.789062 272.671875 538.78125 277.734375 537.601562 280.695312 C 537.554688 280.808594 537.484375 280.902344 537.40625 280.992188 C 537.105469 281.335938 536.625 281.472656 536.1875 281.300781 C 535.636719 281.085938 535.363281 280.453125 535.582031 279.890625 C 536.761719 276.941406 538.769531 271.878906 539.988281 268.804688 C 540.136719 268.414062 540.355469 268.070312 540.59375 267.75 L 538.4375 249.730469 C 538.207031 247.78125 536.371094 246.449219 534.445312 246.816406 C 532.804688 247.125 531.644531 248.59375 531.703125 250.257812 L 532.113281 297.816406 L 532.113281 297.839844 L 557.613281 299.367188 C 560.21875 284.652344 559.679688 276.757812 559.679688 276.757812 C 562.421875 276.734375 562.90625 274.851562 562.457031 269.34375 Z M 424.707031 287.925781 C 420.804688 284.261719 418.464844 278.996094 418.714844 273.210938 L 419.105469 264.085938 L 421.171875 252.382812 C 434.976562 251.832031 451.023438 236.304688 451.023438 236.304688 C 451.023438 236.304688 446.28125 249.890625 462.613281 253.746094 C 466.800781 251.703125 471.265625 251.957031 473.585938 254.734375 C 476.5 258.222656 474.894531 264.363281 469.992188 268.449219 C 468.648438 269.574219 467.191406 270.410156 465.734375 270.972656 L 465.792969 271.261719 C 465.792969 271.261719 455.613281 278.59375 462.636719 285.546875 C 468.203125 291.078125 475.789062 283.78125 475.789062 283.78125 L 475.789062 305.09375 C 475.789062 305.09375 467.480469 310.898438 459.652344 315.296875 C 454.785156 318.027344 450.09375 320.207031 447.707031 320.082031 C 443.355469 319.863281 439.84375 305.230469 439.820312 305.105469 L 439.820312 294.0625 C 439.855469 294.0625 439.902344 294.0625 439.9375 294.050781 C 447.910156 293.15625 452.582031 287.945312 452.777344 287.71875 C 453.191406 287.246094 453.144531 286.523438 452.675781 286.097656 C 452.203125 285.6875 451.480469 285.71875 451.054688 286.203125 C 451.011719 286.25 446.753906 290.976562 439.683594 291.769531 C 439.050781 291.835938 438.605469 292.398438 438.671875 293.03125 C 438.511719 293.042969 438.351562 293.054688 438.179688 293.066406 C 437.765625 293.089844 437.34375 293.113281 436.90625 293.089844 C 436.285156 293.066406 435.667969 292.996094 435.058594 292.917969 C 434.828125 292.882812 434.609375 292.835938 434.382812 292.789062 C 434.015625 292.722656 433.648438 292.664062 433.292969 292.570312 C 433.003906 292.503906 432.730469 292.421875 432.453125 292.34375 C 432.167969 292.261719 431.878906 292.183594 431.605469 292.089844 C 431.292969 291.988281 430.984375 291.859375 430.675781 291.734375 C 430.445312 291.640625 430.226562 291.550781 430.007812 291.457031 C 429.675781 291.308594 429.34375 291.148438 429.023438 290.976562 C 428.851562 290.886719 428.675781 290.792969 428.503906 290.703125 C 428.148438 290.507812 427.804688 290.300781 427.472656 290.082031 C 427.347656 290 427.230469 289.921875 427.105469 289.839844 C 426.738281 289.589844 426.382812 289.335938 426.039062 289.070312 C 425.96875 289.015625 425.898438 288.957031 425.832031 288.910156 C 425.429688 288.578125 425.0625 288.257812 424.707031 287.925781 Z M 461.878906 262.699219 C 462.097656 263.066406 462.476562 263.273438 462.867188 263.273438 C 463.0625 263.273438 463.257812 263.226562 463.441406 263.113281 L 469.292969 259.691406 C 469.84375 259.371094 470.027344 258.671875 469.707031 258.121094 C 469.382812 257.570312 468.683594 257.386719 468.132812 257.707031 L 462.28125 261.125 C 461.742188 261.449219 461.558594 262.148438 461.878906 262.699219 Z M 439.558594 257.960938 C 439.558594 259.1875 440.554688 260.1875 441.785156 260.1875 C 443.011719 260.1875 444.011719 259.1875 444.011719 257.960938 C 444.011719 256.730469 443.011719 255.734375 441.785156 255.734375 C 440.554688 255.734375 439.558594 256.730469 439.558594 257.960938 Z M 438.132812 271.5 C 438.109375 271.523438 435.863281 273.660156 432.316406 272.660156 C 431.707031 272.488281 431.074219 272.84375 430.902344 273.453125 C 430.730469 274.0625 431.085938 274.691406 431.695312 274.863281 C 432.578125 275.117188 433.417969 275.21875 434.175781 275.21875 C 437.539062 275.21875 439.613281 273.246094 439.71875 273.140625 C 440.175781 272.707031 440.1875 271.972656 439.742188 271.523438 C 439.316406 271.078125 438.59375 271.066406 438.132812 271.5 Z M 431.730469 267.828125 C 432.476562 268.746094 433.578125 269.273438 434.761719 269.273438 C 435.390625 269.273438 435.90625 268.757812 435.90625 268.128906 C 435.90625 267.496094 435.390625 266.980469 434.761719 266.980469 C 434.277344 266.980469 433.820312 266.761719 433.519531 266.382812 C 433.222656 266.003906 433.097656 265.523438 433.199219 265.050781 L 433.773438 262.355469 C 433.910156 261.734375 433.507812 261.125 432.890625 260.988281 C 432.269531 260.851562 431.660156 261.253906 431.523438 261.871094 L 430.949219 264.570312 C 430.707031 265.730469 430.984375 266.910156 431.730469 267.828125 Z M 425.109375 257.960938 C 425.109375 259.1875 426.105469 260.1875 427.335938 260.1875 C 428.5625 260.1875 429.5625 259.1875 429.5625 257.960938 C 429.5625 256.730469 428.5625 255.734375 427.335938 255.734375 C 426.105469 255.734375 425.109375 256.730469 425.109375 257.960938 Z M 406.550781 511.378906 L 392.414062 480.027344 L 362.527344 480.40625 L 376.632812 511.679688 C 380.832031 521.007812 378.628906 531.71875 371.640625 538.671875 C 371.640625 541.414062 371.640625 544.410156 371.640625 546.28125 C 376.917969 546.933594 382.199219 547.449219 387.441406 547.726562 C 390.335938 545.292969 393.765625 542.816406 397.792969 540.300781 C 399.195312 539.429688 400.539062 538.351562 401.800781 537.089844 C 408.546875 530.375 410.464844 520.046875 406.550781 511.378906 Z M 406.550781 511.378906 " fill-opacity="1" fill-rule="nonzero"/><path fill="#388e3c" d="M 574.75 364.414062 L 551.476562 471.789062 C 550.546875 476.101562 546.722656 479.179688 542.304688 479.179688 L 458.640625 479.179688 L 477.292969 478.9375 L 473.964844 467.863281 C 482.042969 467.863281 489.238281 465.292969 495.035156 461.078125 C 495.242188 461.367188 495.5625 461.5625 495.941406 461.5625 L 540.367188 461.5625 C 540.515625 461.5625 540.652344 461.527344 540.777344 461.480469 C 540.824219 461.457031 540.859375 461.4375 540.90625 461.414062 C 540.984375 461.367188 541.054688 461.320312 541.125 461.261719 C 541.167969 461.230469 541.191406 461.183594 541.226562 461.136719 C 541.285156 461.070312 541.328125 461.011719 541.363281 460.929688 C 541.386719 460.875 541.410156 460.828125 541.433594 460.769531 C 541.445312 460.722656 541.46875 460.691406 541.480469 460.65625 L 561.023438 365.757812 C 561.148438 365.136719 560.746094 364.527344 560.128906 364.402344 C 559.496094 364.277344 558.898438 364.679688 558.773438 365.296875 L 539.414062 459.277344 L 497.316406 459.277344 C 509.621094 448.707031 514.335938 430.183594 505.316406 414.175781 L 491.683594 389.996094 L 497.664062 359.480469 C 497.730469 359.492188 497.800781 359.523438 497.878906 359.523438 C 498.132812 359.523438 498.386719 359.445312 498.601562 359.273438 C 498.636719 359.25 498.648438 359.214844 498.671875 359.191406 C 502.675781 363.242188 508.460938 368.441406 516.65625 374.535156 C 531.769531 385.792969 553.679688 378.164062 556.972656 360.085938 C 557.351562 358.035156 557.636719 355.644531 557.878906 353.050781 L 565.566406 353.050781 C 571.558594 353.042969 576.023438 358.574219 574.75 364.414062 Z M 249.601562 530.214844 L 189.441406 534.746094 L 184.585938 535.113281 C 184.472656 533.945312 184.355469 532.75 184.253906 531.535156 C 184.21875 531.1875 184.195312 530.84375 184.160156 530.488281 C 184.082031 529.523438 183.988281 528.550781 183.910156 527.550781 C 183.886719 527.242188 183.851562 526.929688 183.828125 526.609375 C 183.726562 525.300781 183.621094 523.96875 183.53125 522.617188 C 183.519531 522.523438 183.519531 522.433594 183.507812 522.339844 C 183.414062 521.078125 183.335938 519.792969 183.253906 518.496094 C 183.230469 518.1875 183.21875 517.875 183.199219 517.566406 C 183.117188 516.304688 183.046875 515.03125 182.980469 513.734375 C 182.96875 513.585938 182.96875 513.433594 182.957031 513.273438 C 182.875 511.757812 182.808594 510.234375 182.75 508.683594 C 182.75 508.605469 182.738281 508.511719 182.738281 508.429688 C 182.679688 506.996094 182.636719 505.539062 182.589844 504.070312 C 182.578125 503.851562 182.578125 503.632812 182.566406 503.417969 C 182.472656 500.238281 182.429688 496.988281 182.417969 493.695312 C 182.417969 493.625 182.417969 493.558594 182.417969 493.488281 C 182.417969 491.90625 182.417969 490.296875 182.441406 488.691406 C 182.441406 488.566406 182.441406 488.441406 182.441406 488.300781 C 182.472656 484.917969 182.566406 481.496094 182.703125 478.054688 C 182.703125 477.972656 182.714844 477.882812 182.714844 477.800781 C 182.785156 476.113281 182.863281 474.425781 182.96875 472.738281 C 182.96875 472.695312 182.96875 472.636719 182.980469 472.589844 C 183.175781 469.113281 183.4375 465.625 183.769531 462.136719 C 183.78125 461.996094 183.792969 461.859375 183.804688 461.722656 C 183.964844 460.011719 184.148438 458.300781 184.34375 456.59375 C 184.390625 456.59375 184.425781 456.605469 184.472656 456.605469 C 184.722656 456.605469 184.976562 456.523438 185.195312 456.351562 L 192.046875 450.855469 C 192.539062 450.453125 192.621094 449.742188 192.21875 449.234375 C 191.816406 448.742188 191.09375 448.664062 190.601562 449.050781 L 186.007812 452.738281 L 187.167969 444.621094 C 187.261719 444.003906 186.835938 443.441406 186.226562 443.335938 C 186.214844 443.335938 186.203125 443.324219 186.191406 443.324219 C 185.574219 443.246094 184.988281 443.671875 184.894531 444.300781 L 183.335938 455.285156 C 183.324219 455.363281 183.335938 455.433594 183.335938 455.515625 L 175.394531 455.515625 C 175.394531 455.492188 175.40625 455.46875 175.40625 455.445312 C 175.40625 454.8125 174.890625 454.296875 174.257812 454.296875 L 139.164062 454.367188 C 138.53125 454.367188 138.015625 454.882812 138.015625 455.515625 C 138.015625 456.144531 138.53125 456.660156 139.164062 456.660156 L 174.257812 456.59375 C 174.292969 456.59375 174.316406 456.582031 174.347656 456.570312 L 161.554688 500.730469 C 161.289062 501.660156 161.058594 502.589844 160.886719 503.519531 C 160.53125 505.378906 160.347656 507.261719 160.324219 509.121094 C 160.324219 509.613281 160.324219 510.105469 160.347656 510.601562 C 160.507812 514.742188 161.496094 518.804688 163.230469 522.558594 L 103.804688 512.148438 L 99.019531 511.3125 C 99.203125 510.140625 99.386719 508.949219 99.582031 507.730469 C 99.636719 507.386719 99.695312 507.042969 99.753906 506.699219 C 99.914062 505.734375 100.074219 504.769531 100.234375 503.785156 C 100.292969 503.460938 100.339844 503.140625 100.394531 502.808594 C 100.613281 501.535156 100.84375 500.238281 101.074219 498.929688 C 101.117188 498.699219 101.164062 498.457031 101.199219 498.21875 C 101.394531 497.117188 101.601562 495.992188 101.820312 494.867188 C 101.886719 494.476562 101.96875 494.074219 102.046875 493.683594 C 102.265625 492.535156 102.496094 491.367188 102.738281 490.195312 C 102.78125 489.953125 102.828125 489.726562 102.875 489.484375 C 103.160156 488.082031 103.449219 486.671875 103.746094 485.238281 C 103.816406 484.894531 103.894531 484.539062 103.976562 484.183594 C 104.21875 483.058594 104.46875 481.921875 104.722656 480.773438 C 104.8125 480.371094 104.90625 479.96875 104.984375 479.570312 C 105.320312 478.089844 105.664062 476.609375 106.019531 475.105469 L 134.011719 475.105469 C 139.4375 475.105469 143.832031 470.707031 143.832031 465.28125 C 143.832031 460.21875 140.011719 456.066406 135.101562 455.523438 C 134.746094 455.492188 134.378906 455.457031 134.011719 455.457031 L 112.550781 455.457031 L 99.246094 394.058594 L 89.859375 350.757812 C 88.882812 346.234375 84.878906 343.011719 80.265625 343.011719 L 42.851562 343.011719 L 37.515625 329.066406 C 38.238281 328.355469 38.972656 327.679688 39.695312 327.011719 C 39.890625 326.828125 40.085938 326.65625 40.28125 326.472656 C 40.902344 325.910156 41.523438 325.359375 42.128906 324.832031 C 42.246094 324.730469 42.359375 324.625 42.472656 324.523438 C 43.1875 323.914062 43.898438 323.328125 44.597656 322.742188 C 44.792969 322.582031 44.988281 322.433594 45.171875 322.285156 C 45.734375 321.835938 46.296875 321.402344 46.847656 320.964844 C 47.019531 320.828125 47.203125 320.6875 47.375 320.550781 C 48.0625 320.035156 48.738281 319.53125 49.417969 319.046875 C 49.613281 318.910156 49.796875 318.785156 49.980469 318.644531 C 50.496094 318.277344 51.023438 317.921875 51.539062 317.566406 C 51.757812 317.417969 51.988281 317.269531 52.207031 317.121094 C 52.859375 316.683594 53.503906 316.269531 54.144531 315.871094 C 54.328125 315.753906 54.511719 315.652344 54.683594 315.535156 C 55.179688 315.238281 55.660156 314.941406 56.152344 314.652344 C 56.40625 314.503906 56.660156 314.355469 56.910156 314.203125 C 57.394531 313.929688 57.875 313.652344 58.347656 313.390625 C 58.644531 313.230469 58.929688 313.070312 59.230469 312.910156 C 59.699219 312.65625 60.171875 312.402344 60.628906 312.164062 C 60.917969 312.011719 61.191406 311.875 61.46875 311.738281 C 61.835938 311.554688 62.203125 311.371094 62.570312 311.199219 C 62.832031 311.070312 63.085938 310.945312 63.351562 310.820312 C 67.078125 323.9375 79.300781 333.625 93.75 333.625 C 111 333.625 124.21875 320.058594 125.242188 304.058594 C 125.253906 304.058594 125.265625 304.058594 125.277344 304.058594 C 126.125 304.09375 126.964844 304.152344 127.777344 304.210938 C 128.089844 304.230469 128.386719 304.253906 128.683594 304.277344 C 129.203125 304.324219 129.730469 304.359375 130.234375 304.402344 C 130.578125 304.4375 130.898438 304.472656 131.242188 304.507812 C 131.703125 304.554688 132.160156 304.609375 132.621094 304.65625 C 132.964844 304.703125 133.296875 304.75 133.632812 304.792969 C 134.054688 304.851562 134.492188 304.910156 134.90625 304.976562 C 135.25 305.035156 135.582031 305.09375 135.914062 305.140625 C 136.316406 305.207031 136.71875 305.277344 137.121094 305.34375 C 137.453125 305.402344 137.785156 305.472656 138.105469 305.539062 C 138.496094 305.621094 138.875 305.691406 139.253906 305.78125 C 139.574219 305.851562 139.898438 305.929688 140.21875 306 C 140.585938 306.078125 140.953125 306.171875 141.320312 306.261719 C 141.640625 306.34375 141.953125 306.425781 142.261719 306.503906 C 142.617188 306.597656 142.972656 306.699219 143.316406 306.792969 C 143.628906 306.882812 143.925781 306.964844 144.234375 307.066406 C 144.578125 307.171875 144.925781 307.285156 145.257812 307.386719 C 145.554688 307.480469 145.851562 307.582031 146.140625 307.6875 C 146.472656 307.800781 146.804688 307.917969 147.140625 308.042969 C 147.425781 308.144531 147.710938 308.25 147.988281 308.351562 C 148.320312 308.476562 148.640625 308.605469 148.976562 308.742188 C 149.25 308.855469 149.527344 308.960938 149.789062 309.074219 C 150.121094 309.210938 150.445312 309.363281 150.765625 309.5 C 151.019531 309.613281 151.28125 309.730469 151.535156 309.84375 C 151.867188 309.992188 152.199219 310.152344 152.519531 310.316406 C 152.761719 310.429688 153.003906 310.542969 153.246094 310.660156 C 153.601562 310.832031 153.945312 311.027344 154.289062 311.210938 C 154.496094 311.324219 154.703125 311.429688 154.910156 311.53125 C 155.390625 311.796875 155.871094 312.070312 156.34375 312.347656 C 156.433594 312.390625 156.515625 312.449219 156.605469 312.496094 C 157.125 312.792969 157.628906 313.101562 158.132812 313.425781 C 158.328125 313.539062 158.511719 313.664062 158.695312 313.792969 C 159.039062 314.011719 159.371094 314.226562 159.707031 314.445312 C 159.921875 314.59375 160.140625 314.746094 160.359375 314.894531 C 160.65625 315.101562 160.96875 315.308594 161.265625 315.523438 C 161.496094 315.6875 161.714844 315.847656 161.941406 316.019531 C 162.230469 316.226562 162.515625 316.429688 162.804688 316.648438 C 163.035156 316.820312 163.261719 316.992188 163.492188 317.175781 C 163.769531 317.394531 164.054688 317.601562 164.332031 317.820312 C 164.558594 318.003906 164.800781 318.1875 165.03125 318.371094 C 165.304688 318.589844 165.582031 318.808594 165.855469 319.035156 C 166.085938 319.230469 166.316406 319.414062 166.558594 319.609375 C 166.832031 319.839844 167.109375 320.070312 167.382812 320.300781 C 167.613281 320.496094 167.84375 320.6875 168.070312 320.894531 C 168.347656 321.136719 168.621094 321.378906 168.898438 321.617188 C 169.128906 321.824219 169.367188 322.03125 169.597656 322.238281 C 169.875 322.480469 170.148438 322.730469 170.425781 322.984375 C 170.652344 323.191406 170.894531 323.410156 171.125 323.628906 C 171.398438 323.878906 171.6875 324.144531 171.972656 324.40625 C 172.203125 324.613281 172.433594 324.832031 172.664062 325.050781 C 172.949219 325.324219 173.246094 325.601562 173.546875 325.875 C 173.777344 326.09375 173.992188 326.300781 174.222656 326.519531 C 174.523438 326.804688 174.832031 327.09375 175.128906 327.390625 C 175.347656 327.609375 175.578125 327.816406 175.796875 328.035156 C 176.117188 328.34375 176.449219 328.664062 176.769531 328.988281 C 176.976562 329.183594 177.183594 329.386719 177.378906 329.582031 C 177.734375 329.9375 178.101562 330.296875 178.46875 330.652344 C 178.652344 330.835938 178.835938 331.007812 179.019531 331.191406 C 179.558594 331.730469 180.109375 332.269531 180.660156 332.808594 L 159.535156 363.921875 C 153.785156 359.742188 148.882812 356.53125 143.820312 352.902344 L 140.6875 373.746094 L 137.785156 393.058594 L 213.519531 393.726562 C 214.964844 393.738281 216.375 393.851562 217.777344 394.046875 C 223.375 394.828125 228.507812 397.03125 232.796875 400.277344 C 232.832031 400.300781 232.867188 400.335938 232.902344 400.359375 C 233.246094 400.621094 233.578125 400.886719 233.910156 401.160156 C 233.96875 401.207031 234.027344 401.265625 234.082031 401.3125 C 234.394531 401.574219 234.703125 401.851562 235.011719 402.125 C 235.082031 402.195312 235.164062 402.253906 235.230469 402.320312 C 235.519531 402.585938 235.804688 402.859375 236.09375 403.136719 C 236.171875 403.214844 236.253906 403.296875 236.320312 403.375 C 236.597656 403.652344 236.859375 403.925781 237.125 404.214844 C 237.207031 404.304688 237.285156 404.386719 237.355469 404.476562 C 237.605469 404.765625 237.859375 405.050781 238.113281 405.339844 C 238.191406 405.429688 238.261719 405.523438 238.339844 405.613281 C 238.582031 405.914062 238.824219 406.210938 239.066406 406.519531 C 239.121094 406.601562 239.179688 406.671875 239.238281 406.75 C 240.269531 408.128906 241.1875 409.574219 241.992188 411.101562 C 242.082031 411.273438 242.175781 411.433594 242.253906 411.59375 C 242.382812 411.847656 242.507812 412.109375 242.621094 412.363281 C 242.726562 412.570312 242.828125 412.789062 242.921875 412.992188 C 243.035156 413.234375 243.128906 413.488281 243.230469 413.738281 C 243.324219 413.96875 243.425781 414.210938 243.515625 414.441406 C 243.609375 414.679688 243.699219 414.921875 243.792969 415.175781 C 243.882812 415.425781 243.976562 415.667969 244.058594 415.921875 C 244.136719 416.160156 244.21875 416.402344 244.285156 416.644531 C 244.367188 416.90625 244.445312 417.160156 244.515625 417.421875 C 244.585938 417.664062 244.640625 417.90625 244.710938 418.148438 C 244.78125 418.421875 244.847656 418.6875 244.90625 418.960938 C 244.964844 419.203125 245.007812 419.445312 245.066406 419.683594 C 245.125 419.972656 245.179688 420.257812 245.226562 420.546875 C 245.273438 420.773438 245.308594 421.015625 245.34375 421.257812 C 245.386719 421.554688 245.421875 421.855469 245.46875 422.164062 C 245.492188 422.394531 245.527344 422.621094 245.550781 422.851562 C 245.582031 423.171875 245.605469 423.496094 245.628906 423.816406 C 245.640625 424.035156 245.664062 424.253906 245.675781 424.46875 C 245.699219 424.824219 245.699219 425.191406 245.710938 425.558594 C 245.710938 425.742188 245.722656 425.917969 245.722656 426.101562 C 245.722656 426.652344 245.710938 427.203125 245.6875 427.753906 L 244.367188 455.503906 L 242.566406 509.464844 C 242.53125 510.429688 242.542969 511.382812 242.597656 512.332031 C 243.023438 518.976562 245.527344 525.1875 249.601562 530.214844 Z M 135.101562 348.578125 L 142.375 352.914062 C 142.558594 353.03125 142.765625 353.074219 142.960938 353.074219 C 143.351562 353.074219 143.730469 352.878906 143.949219 352.511719 C 144.269531 351.972656 144.097656 351.261719 143.546875 350.941406 L 136.269531 346.601562 C 135.730469 346.28125 135.019531 346.453125 134.699219 347.003906 C 134.378906 347.554688 134.550781 348.253906 135.101562 348.578125 Z M 387.441406 547.726562 C 382.199219 547.449219 376.917969 546.945312 371.640625 546.28125 C 371.640625 544.421875 371.640625 541.414062 371.640625 538.671875 C 370.390625 539.921875 368.988281 541.058594 367.441406 542.035156 C 357.28125 548.390625 346.734375 557.089844 346.734375 565.800781 L 376.863281 565.800781 C 376.679688 565.59375 376.550781 565.332031 376.550781 565.03125 C 376.539062 559.605469 380.210938 553.808594 387.441406 547.726562 Z M 470.667969 556.828125 C 470.648438 556.496094 470.625 556.128906 470.589844 555.78125 C 470.566406 555.507812 470.542969 555.230469 470.519531 554.933594 C 470.496094 554.601562 470.464844 554.257812 470.441406 553.914062 C 470.417969 553.566406 470.382812 553.234375 470.347656 552.878906 C 470.3125 552.535156 470.289062 552.191406 470.257812 551.835938 C 470.222656 551.457031 470.1875 551.066406 470.140625 550.664062 C 470.105469 550.320312 470.074219 549.964844 470.039062 549.609375 C 469.992188 549.171875 469.945312 548.726562 469.902344 548.277344 C 469.867188 547.933594 469.832031 547.578125 469.785156 547.222656 C 469.730469 546.738281 469.671875 546.234375 469.613281 545.742188 C 469.578125 545.398438 469.535156 545.0625 469.488281 544.707031 C 469.417969 544.132812 469.351562 543.550781 469.269531 542.964844 C 469.234375 542.664062 469.1875 542.367188 469.15625 542.058594 C 469.039062 541.152344 468.914062 540.234375 468.777344 539.292969 C 448.53125 549.265625 425.785156 549.09375 403.050781 546.246094 C 403.050781 544.46875 403.050781 541.65625 403.050781 539.015625 C 401.765625 540.242188 400.410156 541.324219 399 542.207031 C 385.800781 550.46875 378.835938 558.355469 378.835938 565 C 378.835938 565.296875 378.710938 565.5625 378.527344 565.765625 L 471.058594 565.765625 C 471.058594 565.800781 471.058594 562.496094 470.667969 556.828125 C 470.667969 556.839844 470.667969 556.839844 470.667969 556.828125 Z M 470.667969 556.828125 " fill-opacity="1" fill-rule="nonzero"/></svg>